<svg xmlns="http://www.w3.org/2000/svg" width="190" height="40"><path d="M39.426 24.763c-2.613 10.479-13.227 16.856-23.707 14.243C5.242 36.394-1.135 25.78 1.479 15.3 4.09 4.82 14.704-1.559 25.182 1.054c10.48 2.613 16.857 13.229 14.244 23.709z" fill="#f7931a"/><path d="M29.074 17.244c.39-2.603-1.593-4.003-4.303-4.936l.88-3.526-2.147-.535-.856 3.433a89.782 89.782 0 0 0-1.72-.404l.863-3.456-2.145-.535-.88 3.525a71.8 71.8 0 0 1-1.37-.322l.002-.011-2.96-.74-.57 2.293s1.592.365 1.558.387c.87.217 1.026.793 1 1.249l-1.001 4.017c.06.015.137.037.223.071l-.227-.056-1.403 5.627c-.107.264-.376.66-.984.51.021.03-1.56-.39-1.56-.39l-1.065 2.457 2.793.696c.52.13 1.028.267 1.53.395l-.889 3.566 2.144.535.88-3.528c.585.159 1.154.306 1.71.444l-.876 3.512 2.146.534.888-3.56c3.66.693 6.412.414 7.57-2.896.934-2.665-.046-4.203-1.972-5.205 1.403-.324 2.459-1.246 2.74-3.151zM24.17 24.12c-.663 2.665-5.15 1.224-6.606.863l1.179-4.724c1.455.363 6.12 1.081 5.427 3.861zm.664-6.915c-.605 2.424-4.34 1.193-5.552.89l1.069-4.284c1.211.302 5.113.865 4.483 3.394z" fill="#fff"/><path d="M58.215 12.307c1.586 0 2.956.284 4.108.842a8.272 8.272 0 0 1 2.878 2.278c.756.96 1.318 2.081 1.681 3.367.36 1.29.542 2.675.542 4.158 0 2.28-.418 4.432-1.26 6.462-.844 2.032-1.987 3.795-3.442 5.3-1.454 1.501-3.17 2.685-5.15 3.56-1.976.875-4.125 1.313-6.432 1.313-.298 0-.823-.009-1.564-.024a22.86 22.86 0 0 1-2.546-.22 29.88 29.88 0 0 1-3.046-.598 15.262 15.262 0 0 1-3.046-1.089l8.566-35.99L57.175.477 54.11 13.25a11.927 11.927 0 0 1 1.978-.692c.66-.165 1.37-.25 2.128-.25zM51.78 33.5a6.722 6.722 0 0 0 3.266-.842 8.6 8.6 0 0 0 2.653-2.253 11.364 11.364 0 0 0 1.756-3.195c.428-1.187.644-2.426.644-3.716 0-1.584-.264-2.819-.792-3.712-.528-.89-1.504-1.337-2.921-1.337-.465 0-1.063.089-1.806.247a4.507 4.507 0 0 0-2.008 1.042L49.307 33.3c.197.034.37.067.52.099.145.033.306.057.466.074.17.019.363.028.597.028h.89zm23.602 5.395h-7.328l6.188-26.04h7.378l-6.238 26.04zm3.565-29.212a4.547 4.547 0 0 1-2.773-.914c-.83-.607-1.24-1.54-1.24-2.798 0-.692.14-1.341.42-1.954a5.227 5.227 0 0 1 1.116-1.585 5.482 5.482 0 0 1 1.607-1.065 4.91 4.91 0 0 1 1.959-.395c1.022 0 1.944.305 2.77.915.823.613 1.237 1.546 1.237 2.798 0 .694-.14 1.346-.421 1.957a5.153 5.153 0 0 1-1.113 1.585 5.38 5.38 0 0 1-1.607 1.062 4.826 4.826 0 0 1-1.955.394zM88.04 6.37l7.675-1.19-1.885 7.676h8.22l-1.484 6.038h-8.17l-2.177 9.108c-.2.76-.314 1.469-.346 2.128-.036.662.048 1.23.246 1.709.197.48.55.85 1.064 1.111.511.266 1.243.4 2.203.4.79 0 1.56-.075 2.305-.224.74-.147 1.49-.351 2.25-.618l.546 5.645c-.99.364-2.062.676-3.218.939-1.157.266-2.527.395-4.11.395-2.276 0-4.041-.338-5.299-1.011-1.255-.678-2.143-1.604-2.674-2.777-.524-1.168-.758-2.515-.693-4.032.068-1.52.297-3.12.693-4.803L88.04 6.37zm13.686 22.13c0-2.243.363-4.358 1.09-6.338.723-1.982 1.767-3.715 3.121-5.202 1.35-1.48 2.993-2.652 4.928-3.513 1.925-.856 4.081-1.288 6.457-1.288 1.488 0 2.816.141 3.985.423a16.21 16.21 0 0 1 3.196 1.112l-2.528 5.747a23.663 23.663 0 0 0-2.053-.718c-.71-.218-1.575-.323-2.6-.323-2.445 0-4.378.843-5.817 2.523-1.434 1.682-2.156 3.945-2.156 6.785 0 1.683.363 3.043 1.092 4.084.725 1.041 2.064 1.56 4.009 1.56.96 0 1.886-.101 2.773-.297a13.66 13.66 0 0 0 2.378-.742l.547 5.89c-.927.36-1.95.685-3.07.969-1.124.274-2.461.417-4.012.417-2.047 0-3.78-.3-5.198-.89-1.418-.599-2.59-1.394-3.513-2.401a9.052 9.052 0 0 1-2.006-3.543 14.531 14.531 0 0 1-.623-4.255zm32.55 11.088c-1.748 0-3.267-.267-4.556-.795-1.285-.527-2.35-1.267-3.191-2.227-.843-.955-1.474-2.086-1.906-3.39-.432-1.304-.64-2.747-.64-4.328 0-1.984.318-3.967.962-5.944a16.83 16.83 0 0 1 2.85-5.346c1.248-1.585 2.787-2.88 4.6-3.891 1.812-1.004 3.895-1.509 6.235-1.509 1.717 0 3.228.267 4.535.795 1.3.526 2.37 1.273 3.218 2.228.837.96 1.473 2.086 1.901 3.392.431 1.3.644 2.747.644 4.33 0 1.977-.314 3.96-.938 5.944a17.162 17.162 0 0 1-2.773 5.345c-1.22 1.583-2.746 2.878-4.578 3.884-1.83 1.007-3.953 1.512-6.363 1.512zm3.663-21.189c-1.087 0-2.047.315-2.87.938a8.09 8.09 0 0 0-2.076 2.378 11.74 11.74 0 0 0-1.267 3.144 13.552 13.552 0 0 0-.418 3.242c0 1.652.267 2.939.79 3.865.532.921 1.486 1.385 2.873 1.385 1.09 0 2.045-.313 2.872-.943a8.126 8.126 0 0 0 2.078-2.376 11.77 11.77 0 0 0 1.266-3.143c.277-1.137.418-2.22.418-3.243 0-1.648-.265-2.938-.794-3.862-.528-.922-1.486-1.385-2.872-1.385zm18.976 20.496h-7.334l6.189-26.04h7.38l-6.235 26.04zm3.56-29.212a4.538 4.538 0 0 1-2.77-.914c-.825-.607-1.24-1.54-1.24-2.798 0-.692.143-1.341.422-1.954a5.16 5.16 0 0 1 1.115-1.585 5.471 5.471 0 0 1 1.609-1.065 4.876 4.876 0 0 1 1.952-.395c1.025 0 1.95.305 2.774.915.825.613 1.241 1.546 1.241 2.798a4.69 4.69 0 0 1-.425 1.957 5.138 5.138 0 0 1-1.11 1.585 5.437 5.437 0 0 1-1.608 1.062 4.842 4.842 0 0 1-1.96.394zm7.954 4.359c.556-.162 1.177-.358 1.853-.57a24.688 24.688 0 0 1 2.28-.59 27.317 27.317 0 0 1 2.82-.449 31.704 31.704 0 0 1 3.538-.175c3.864 0 6.528 1.125 8 3.37 1.469 2.243 1.723 5.315.77 9.207l-3.371 14.06h-7.376l3.267-13.764c.199-.86.355-1.69.47-2.502.118-.804.11-1.513-.025-2.127a2.548 2.548 0 0 0-.914-1.487c-.483-.379-1.214-.569-2.205-.569-.955 0-1.927.103-2.92.3l-4.802 20.148h-7.379l5.994-24.852z" fill="#4d4d4d"/></svg>