<svg height="512" width="512" xmlns="http://www.w3.org/2000/svg"><path d="M266.291 127.493c-.897 0-1.498-.13-1.971-.23-2.208-.476-3.351-1.749-3.915-2.735a3.53 3.53 0 0 1 1.146-4.736c22.429-14.433 52.842-34.206 75.553-49.291-18.678 11.273-40.606 25.51-53.3 33.757-23.093 14.991-23.093 14.997-25.118 14.506a3.595 3.595 0 0 1-2.262-1.68c-2.48-4.297 1.3-9.385 14.998-18.748a3.524 3.524 0 0 1 .922-4.627l23.996-17.978a3.528 3.528 0 0 1 2.335-5.009c2.044-.979 11.564-6.598 20.019-11.722a3.538 3.538 0 0 1 4.761 1.043 3.544 3.544 0 0 1-.237 4.266l30.037-17.344a3.54 3.54 0 0 1 2.687-.352 3.553 3.553 0 0 1 2.141 1.646c.419.731.612 1.438.582 2.138 6.604-3.12 10.564-4.157 12.796-3.621 1.292.31 2.354 1.083 2.984 2.168 1.782 3.086-.886 5.036-5.301 8.259-2.759 2.014-6.858 4.867-12.171 8.487-8.933 6.062-21.444 14.375-37.199 24.709a7945.86 7945.86 0 0 1-32.978 21.486c8.751-4.742 21.079-12.068 38.399-23.357 26.246-17.102 51.05-34.907 51.292-35.083a3.534 3.534 0 0 1 4.124 5.738c-.249.176-24.979 17.929-51.231 35.052-45.532 29.699-58.383 33.258-63.089 33.258z" fill="#d71a60"/><path d="M97.256 211.082c-.503 0-.961-.051-1.38-.143-1.479-.336-2.687-1.201-3.402-2.438a3.541 3.541 0 0 1-.328-2.78c.443-1.474.664-1.586 4.421-3.469a6.9 6.9 0 0 0 .285-.143 3.494 3.494 0 0 1-.892-1.022c-.497-.858-.973-2.28-.446-4.19.4-1.428 1.031-3.708 7.532-9.363a3.734 3.734 0 0 1-.922-1.067c-1.704-2.947.379-4.682 5.167-8.035-.027-.003-.049-.012-.073-.015-1.089-.273-1.989-.943-2.529-1.88a3.532 3.532 0 0 1 1.21-4.779 5456.937 5456.937 0 0 0 30.213-18.651c-1.013.285-1.671.245-2.308.094a3.717 3.717 0 0 1-2.389-1.771 3.589 3.589 0 0 1-.418-1.131c-2.838 1.198-4.3 1.383-5.346 1.116a3.811 3.811 0 0 1-2.411-1.804 3.533 3.533 0 0 1 1.292-4.824 3.514 3.514 0 0 1 2.429-.406c6.167-1.911 38.324-21.817 59.804-35.113 40.013-24.77 40.443-24.664 42.821-24.067.925.234 1.786.88 2.268 1.708l.103.188c2.684-.961 4.594-1.234 5.925-.919 1.258.3 2.287 1.049 2.896 2.11 1.95 3.381-1.51 5.995-5.892 9.306-.134.101-.273.203-.409.31.333.003.606.073.909.148a3.774 3.774 0 0 1 2.277 1.71 3.536 3.536 0 0 1-1.194 4.767c-1.447.898-2.917 1.813-4.403 2.741 1.625-.688 2.111-.561 2.793-.385a3.602 3.602 0 0 1 2.213 1.674c.273.476.431 1.003.464 1.54 3.903-.934 5.649-.558 6.801-.313 1.516.325 2.586.971 3.335 1.677 1.832-.388 3.357-.443 4.6-.161 2.141.482 3.262 1.75 3.829 2.726a3.534 3.534 0 0 1-1.292 4.827 3.53 3.53 0 0 1-4.396-.7c-.285-.015-.701.015-1.316.143-1.195 3.684-6.295 13.308-69.956 48.642-12.023 6.671-25.255 13.781-39.576 21.262-23.207 15.527-36.057 22.874-42.309 22.88zm124.947-87.127c-11.24 5.673-28.439 15.57-54.701 32.693-22.032 14.357-43.388 29.224-55.698 37.915a2745.101 2745.101 0 0 0 24.167-12.45c10.4-6.956 21.429-14.582 31.149-21.308 23.588-16.316 41.614-28.584 55.083-36.85zm8.314 3.269a342.341 342.341 0 0 0-8.035 4.875c-7.092 4.43-15.003 9.652-23.266 15.24 15.061-8.897 24.891-15.401 31.301-20.115z" fill="#d71a60"/><path d="M91.501 200.727c-.255 0-.519-.033-.813-.097a3.53 3.53 0 0 1-2.301-1.68c-.37-.64-.37-.64-.97-4.184l-.276-1.635c-1.08.719-2.177 1.137-3.46.907a3.757 3.757 0 0 1-2.607-1.825c-.955-1.653-.516-2.771.722-4.685-.995.71-1.98 1.432-2.914 2.132a3.53 3.53 0 0 1-4.921-.67 3.524 3.524 0 0 1 .609-4.924l2.365-1.865a3.703 3.703 0 0 1-1.379-1.374 3.578 3.578 0 0 1-.349-2.714c.449-1.646.5-1.829 16.501-10.898-.246-.042-.461-.088-.661-.13-2.353-.503-3.563-1.853-4.166-2.896-.552-.955-1.077-2.52-.458-4.554.94-3.102 4.618-6.607 11.492-11.08a5.4 5.4 0 0 1 .228-1.683c1.349-4.566 9.521-10.049 27.711-19.779a3.539 3.539 0 0 1 .909-3.587c-.855.046-1.392-.072-1.834-.169-1.365-.303-2.475-1.095-3.132-2.229a3.536 3.536 0 0 1 1.14-4.73l6.034-3.912a3.84 3.84 0 0 1-.312-.464 3.533 3.533 0 0 1 4.388-5.042c4.572-1.304 21.18-12.468 32.335-19.967 24-16.137 28.8-18.842 32.074-18.084a3.99 3.99 0 0 1 2.578 1.883c.236.421.385.861.443 1.313.279-.012.563.021.846.085a3.542 3.542 0 0 1 2.295 1.68c1.644 2.854-.561 4.491-3.909 6.971a608.572 608.572 0 0 1-8.078 5.84c-.246.173-.497.355-.749.537a425.458 425.458 0 0 1 5.585-3.138c3.308-2.202 6.607-4.415 9.861-6.623a3.527 3.527 0 0 1 3.547-.242c10.883-5.006 13.669-4.388 15.304-4.021 2.022.449 3.074 1.625 3.599 2.532.627 1.089 1.228 2.878.515 5.216-.831 2.735-3.554 5.791-8.02 9.263a6.11 6.11 0 0 1-.188.979c-2.811 10.313-44.136 35.747-110.468 73.439l-14.47 11.416a3.528 3.528 0 0 1-.313 3.472 1916.352 1916.352 0 0 0-3.69 5.357c.185.203.349.428.491.67.397.685.588 1.322 1.343 5.664 2.432-1.541 3.717-1.941 5.136-1.628a3.739 3.739 0 0 1 2.429 1.768 3.534 3.534 0 0 1-2.914 5.301c-1.067.588-3.141 2.05-3.89 2.58-1.304.919-2.132 1.504-3.238 1.504zm68.864-76.96c-1.634.813-3.299 1.632-4.985 2.462-23.533 11.598-55.101 27.153-61.226 33.973 4.427-.567 18.827-5.495 64.094-35.046l2.117-1.389zm51.21-39.643c-1.592 3.696-6.865 8.072-15.352 13.381a315.795 315.795 0 0 0 4.536-2.525c14.779-8.394 19.548-12.793 21.077-14.815-2.229.405-5.737 1.782-10.261 3.959z" fill="#d71a60"/><path d="M58.875 219.775c-.318 0-.567-.061-.828-.125a3.681 3.681 0 0 1-2.256-1.695c-1.562-2.702-.254-4.506 5.719-9.739a718.644 718.644 0 0 0-3.808 2.323 3.54 3.54 0 0 1-4.648-.864 3.533 3.533 0 0 1 .376-4.715l6.21-5.882-.676.388a3.542 3.542 0 0 1-4.415-.719 3.535 3.535 0 0 1-.169-4.469l6.194-8.193a4.238 4.238 0 0 1-1.161-1.292 3.54 3.54 0 0 1 .1-3.696s1.501-2.307 3.436-5.276c-6.068 3.502-6.665 3.354-7.833 3.057a3.585 3.585 0 0 1-2.216-1.677c-1.595-2.76.409-4.658 4.4-8.436 1.84-1.741 4.188-3.884 6.607-6.071a3.513 3.513 0 0 1-.786-.94c-.503-.867-.764-1.655-.625-2.544-.048-.009-.091-.021-.136-.033-1.104-.246-2.017-.91-2.565-1.862-1.644-2.844.109-4.551 5.152-8.084a3.37 3.37 0 0 1-.27-.403 3.674 3.674 0 0 1-.352-2.763c.488-1.783.625-2.28 19.19-12.835a4.752 4.752 0 0 1-1.173-1.355c-.564-.979-1.106-2.581-.494-4.682 1.713-5.871 12.505-13.099 34.076-24.794a3.533 3.533 0 0 1 1.747-3.544 1273.388 1273.388 0 0 0 24.294-14.239 4.266 4.266 0 0 1-.879-1.076c-1.307-2.259-.182-3.93 2.447-6.571a751.803 751.803 0 0 0-7.095 4.566 3.511 3.511 0 0 1-2.753.479 3.542 3.542 0 0 1-2.238-1.671c-1.255-2.18-.579-3.341 2.748-6.641-5.892 3.727-8.417 4.682-10.461 4.215a3.952 3.952 0 0 1-2.604-1.898 3.532 3.532 0 0 1 1.292-4.827 3.504 3.504 0 0 1 2.574-.376c2.875-1.143 11.207-6.865 16.847-10.737 13.984-9.6 17.554-11.783 20.419-11.131a3.891 3.891 0 0 1 2.541 1.853 3.544 3.544 0 0 1-.658 4.36 4719.608 4719.608 0 0 0-3.405 3.16c6.259-3.32 7.411-3.047 8.312-2.832a3.725 3.725 0 0 1 2.389 1.771 3.535 3.535 0 0 1-.403 4.094c9.767-6.904 14.042-9.309 17.099-8.651 1.219.261 2.226.982 2.835 2.038a4.15 4.15 0 0 1 .519 1.583c.233-.161.47-.318.704-.479a3.518 3.518 0 0 1 2.774-.527 3.496 3.496 0 0 1 2.277 1.677c.512.888 1.006 2.329.488 4.211l.112-.082a3.553 3.553 0 0 1 2.784-.54 3.556 3.556 0 0 1 2.283 1.683c.625 1.08.77 2.38.415 3.666-2.107 7.708-31.58 25.638-92.509 60.01-1.158 1.698-3.866 3.563-8.108 6.489a536.198 536.198 0 0 1-7.602 5.14c1.085 2.547-1.222 4.309-3.102 5.743-1.265.964-3.057 2.28-5.1 3.781-1.003.737-2.213 1.628-3.53 2.602.061.088.119.179.17.27 1.58 2.735-.473 4.676-4.202 8.199a405.504 405.504 0 0 1-3.675 3.402c.421.173.819.431 1.155.773 2.029 2.025 1.098 3.454-1.389 7.268l-3.284 5.037a3.716 3.716 0 0 1 1.983 1.646 3.545 3.545 0 0 1-.24 3.899l-3.359 4.439 11.516-6.646a3.532 3.532 0 0 1 4.194 5.622l-5.918 5.609c1.752-.743 2.259-.612 2.908-.446a3.614 3.614 0 0 1 2.216 1.671c1.304 2.262.588 4.524-2.635 8.081a3.535 3.535 0 0 1 3.617 1.598 3.536 3.536 0 0 1-1.119 4.873c-20.691 12.965-24.691 14.782-26.44 14.782zm95.313-129.499a2378.241 2378.241 0 0 1-10.57 5.506c-18.885 9.8-46.329 24.04-53.361 31.074 9.5-2.938 34.904-17.865 63.931-36.58z" fill="#d71a60"/><path d="M260.108 461.861c-.219 0-.449-.018-.691-.061a3.58 3.58 0 0 1-2.396-1.716c-.897-1.571-.431-2.675.403-4.439-4.063 2.298-5.191 2.062-6.04 1.88a3.853 3.853 0 0 1-2.517-1.819 3.531 3.531 0 0 1 1.016-4.646l.985-.697a3.42 3.42 0 0 1-.473-.631c-.84-1.461-1.001-2.874-.021-4.651a3.533 3.533 0 1 1-5.176-3.832 3.525 3.525 0 0 1-2.693-1.796 3.51 3.51 0 0 1-.43-1.37 186.28 186.28 0 0 0-2.059 1.031 3.536 3.536 0 0 1-4.679-1.504 3.529 3.529 0 0 1 1.346-4.725l.379-.218a3.573 3.573 0 0 1-.858-.965 3.529 3.529 0 0 1 1.101-4.803l13.439-8.685-18.642 10.759a3.526 3.526 0 0 1-4.824-1.292 4.928 4.928 0 0 1-.661-2.711c-6.525 3.603-9.8 4.682-11.687 4.228a4.036 4.036 0 0 1-2.61-1.917 3.503 3.503 0 0 1-.167-3.203c-1.395.134-2.165-.048-2.787-.193-1.416-.34-2.562-1.165-3.229-2.323-.758-1.31-1.474-3.475-.616-6.397a11.04 11.04 0 0 1 .701-1.783 3.493 3.493 0 0 1-.864-1.019 3.53 3.53 0 0 1 1.31-4.797l9.612-5.556c.728-.605 1.489-1.23 2.283-1.867-.879.267-1.704.503-2.475.703l-14.597 8.424a3.54 3.54 0 0 1-2.681.357 3.534 3.534 0 0 1-2.146-1.649c-.588-1.013-1.149-2.698-.494-4.937.394-1.353 1.319-2.862 2.753-4.53a6.539 6.539 0 0 1-.473-.661c-4.354 1.316-7.829 1.717-10.413 1.141-2.905-.648-4.403-2.322-5.152-3.62a3.541 3.541 0 0 1 1.583-4.979c.916-.424 1.84-.843 2.79-1.285-5.728 1.346-8.139.813-9.673.461-2.978-.667-4.476-2.323-5.212-3.59a3.537 3.537 0 0 1 1.228-4.791l21.756-13.196a204.408 204.408 0 0 1-6.917 3.093c-6.58 4.372-10.352 6.907-10.509 7.011a3.575 3.575 0 0 1-2.769.509 3.55 3.55 0 0 1-2.262-1.674 5.006 5.006 0 0 1-.604-1.71c-.103-.024-.197-.048-.291-.066-.955-.23-1.677-.631-2.223-1.079a15.994 15.994 0 0 1-2.647-.346c-3.417-.752-5.127-2.639-5.968-4.082-.646-1.122-1.261-3.008-.503-5.598.085-.303.185-.63.318-1.013a7.885 7.885 0 0 1-2.689-2.759c-.694-1.201-1.355-3.196-.57-5.895.019-.066.04-.127.058-.188l-10.337 5.968c-1.68.977-3.833.4-4.815-1.273a3.534 3.534 0 0 1 1.243-4.821l2.863-1.704a3.465 3.465 0 0 1-1.037-1.122c-2.202-.722-3.402-2.104-4.033-3.196a8.842 8.842 0 0 1-.752-1.716l-5.707 3.293a3.537 3.537 0 0 1-2.68.352 3.493 3.493 0 0 1-2.147-1.649 7.094 7.094 0 0 1-.416-.837c-.725.104-1.319.091-1.795-.024-1.152-.272-2.098-.964-2.668-1.952a3.735 3.735 0 0 1-.328-2.875c.009-.036.021-.066.03-.097a7.054 7.054 0 0 1-1.28-1.619 3.533 3.533 0 0 1 1.286-4.821c2.417-1.407 4.864-2.82 7.323-4.251a3.368 3.368 0 0 1-.549-.334c-2.792.31-5.158.249-7.102-.182-3.881-.849-5.818-2.972-6.755-4.591a3.54 3.54 0 0 1 1.222-4.791l1.173-.709c-1.474.272-2.663.291-3.587.078-1.449-.339-2.632-1.194-3.323-2.383a5.516 5.516 0 0 1-.573-1.462c-3.433 1.717-5.346 2.65-5.467 2.711a3.526 3.526 0 0 1-4.682-1.498 3.524 3.524 0 0 1 1.353-4.718l9.069-5.239c-4.43 2.067-7.347 2.802-9.154 2.401-1.304-.298-2.374-1.062-3.008-2.165a3.531 3.531 0 0 1 1.225-4.785l80.056-48.609c4.521-3.129 9.109-6.31 13.715-9.509a33313.04 33313.04 0 0 0-98.279 58.221 3.519 3.519 0 0 1-4.836-1.226 3.523 3.523 0 0 1 1.213-4.833 107574.75 107574.75 0 0 0 58.051-34.876 46239.05 46239.05 0 0 1-28.624 15.73c-10.591 5.822-19.078 10.485-23.426 12.905l-3.351 1.929a3.502 3.502 0 0 1-3.93-.267 3.523 3.523 0 0 1-1.349-3.166 3.518 3.518 0 0 1-3.057-1.765c-.543-.934-.676-2.062-.376-3.159.164-.625.367-1.359 1.713-2.832l-3.214 1.861a3.527 3.527 0 0 1-3.787-.158c-4.003 1.062-7.144 1.347-9.403.813-2.647-.625-4.009-2.147-4.682-3.317-.77-1.334-1.5-3.529-.697-6.495-1.662-.837-2.632-2.014-3.189-2.983-.503-.88-.989-2.323-.428-4.275.249-.861.576-1.995 2.077-3.894a3.614 3.614 0 0 1 .133-1.231c.176-.588.3-1.013 1.519-1.88l-.045-.072c.063-.043.652-.422 1.725-1.11a4.243 4.243 0 0 1-.458-.651 3.528 3.528 0 0 1 1.228-4.785l1.119-.679a96.583 96.583 0 0 1-6.167 2.159c-1.743.976-2.698 1.51-2.783 1.561a3.543 3.543 0 0 1-3.593-.081c-2.478.303-3.721.012-4.624-.2-2.359-.555-3.557-1.893-4.151-2.914a3.536 3.536 0 0 1 1.393-4.879c.109-.058 2.617-1.401 6.98-3.763-.288-.033-.521-.094-.749-.151a3.512 3.512 0 0 1-.325-.094c-5.47 2.432-9.284 3.33-11.71 2.774-1.528-.352-2.774-1.243-3.508-2.511a4.608 4.608 0 0 1-.546-3.029 5.1 5.1 0 0 1-1.064-1.307 3.522 3.522 0 0 1 .988-4.624l6.019-4.357a3.716 3.716 0 0 1-1.428-1.401c-1.358-2.353-.237-4.318 3.751-9.879-2.472 1.531-4.843 3.029-6.44 4.036-6.231 3.936-6.237 3.936-7.796 3.548a3.539 3.539 0 0 1-2.22-1.665c-1.455-2.523-.81-4.633 6.24-10.525a3.533 3.533 0 0 1 .649-3.96c.619-.637 1.247-1.292 1.871-1.944l-.106-.17c-.391-.682-.761-1.316-.63-2.304-5.916 3.181-7.314 2.865-8.169 2.671a3.894 3.894 0 0 1-2.559-1.856c-1.468-2.541-.461-5.018 4.584-9.924-1.104-.246-2.016-.906-2.565-1.865-1.325-2.292-.485-4.275 2.78-7.668-.7.14-1.331.137-1.938.003a3.995 3.995 0 0 1-2.668-1.925 3.54 3.54 0 0 1 .021-3.578c-5.064 2.841-5.701 2.677-6.901 2.374a3.67 3.67 0 0 1-2.25-1.695c-1.655-2.868.828-5.203 4.267-8.436a64.52 64.52 0 0 1 1.249-1.161 3.904 3.904 0 0 1-1.019-1.149 3.538 3.538 0 0 1 .794-4.482 823.973 823.973 0 0 0 12.244-10.416c-14.136 9.054-14.915 9.297-16.935 8.809-.937-.23-1.816-.879-2.295-1.716-1.589-2.747-.597-4.727 6.471-10.249-1.777.561-2.435.403-2.899.294a3.839 3.839 0 0 1-2.495-1.829c-1.774-3.077.542-4.797 6.14-8.941 2.535-1.877 5.84-4.251 9.452-6.832-.992-.3-1.81-.94-2.323-1.823a3.54 3.54 0 0 1 1.216-4.781c19.473-11.923 39.882-25.322 52.933-34.94-14.482 8.421-34.243 20.813-43.852 26.838-13.518 8.484-13.523 8.487-15.152 8.081a3.551 3.551 0 0 1-2.217-1.665c-2.11-3.666 1.801-7.177 6.735-11.059 2.538-1.998 5.81-4.375 9.912-7.205a3.5 3.5 0 0 1-1.683-1.485c-2.001-3.466.525-7.065 10.361-14.461-1.695-3.141 1.237-5.4 6.055-9.111 3.123-2.408 7.283-5.437 11.722-8.663a3.534 3.534 0 0 1 .161-5.331c12.474-10.188 20.782-15 24.697-14.275 1.376.251 2.507 1.034 3.184 2.201 1.201 2.08.439 3.912-1.804 6.173a10990.9 10990.9 0 0 0 13.754-8.087c7.226-4.312 12.068-7.128 12.162-7.186a3.534 3.534 0 0 1 5.303 3.248c14.409-7.878 15.998-7.48 17.365-7.144a3.826 3.826 0 0 1 2.411 1.795c2.11 3.663-1.046 5.691-12.792 13.244-7.456 4.791-17.948 11.271-29.058 18.133-.182.109-.358.221-.54.331.354-.015.658.033.931.1 1.055.264 1.928.913 2.453 1.828 2.29 3.957-1.765 8.278-10.034 14.864-4.973 3.966-11.883 8.951-20.561 14.843.664 2.82-2.362 5.664-11.319 12.486a3.56 3.56 0 0 1 1.71 1.498c1.692 2.932.361 5.619-6.911 11.583.182.024.361.058.54.103a3.735 3.735 0 0 1 2.39 1.777c1.219 2.117 2.135 3.693-12.432 16.816a3.57 3.57 0 0 1 1.052 1.137 3.535 3.535 0 0 1-.815 4.491c-.14.112-.276.227-.416.342 1.119-.503 1.519-.4 2.265-.212.922.236 1.719.84 2.195 1.665.849 1.474 1.007 2.414-.619 4.509.376-.021.734.015 1.098.091 1.07.23 1.989.895 2.529 1.832 1.443 2.499.364 4.876-3.617 9a314.04 314.04 0 0 0 2.808-1.953 3.532 3.532 0 0 1 5.09 1.122c1.704 2.95.416 4.381-8.317 11.71 1.058-.725 2.107-1.443 3.132-2.153a3.531 3.531 0 0 1 4.767.688 3.53 3.53 0 0 1-.349 4.803 262.068 262.068 0 0 0-7.586 7.334c.236.228.439.488.604.767.173.297.315.567.418.831 1.722-1.037 3.472-2.089 5.176-3.123a3.532 3.532 0 0 1 3.857 5.912 447.9 447.9 0 0 0-3.751 2.65c.531.322.989.776 1.289 1.295 1.376 2.386.158 4.776-3.505 9.967 3.802-2.356 7.978-5.024 11.386-7.201 18.939-12.104 20.51-12.823 22.805-12.262.934.227 1.837.894 2.323 1.734a3.536 3.536 0 0 1-.485 4.184c14.345-8.281 31.957-17.65 52.014-28.014 5.697-3.724 11.407-7.471 17.08-11.189 57.657-37.823 74.543-48.257 80.047-47.308 4.236-1.555 7.453-2.125 9.618-1.625 2.174.497 3.305 1.777 3.872 2.759.598 1.031.73 2.256.379 3.451-.357 1.201-1.386 2.55-3.362 4.227.397.849.685 2.098.227 3.7-.47 1.655-1.234 4.324-11.228 12.071l55.978-32.317c48.666-31.174 85.355-55.486 85.89-55.838a3.537 3.537 0 0 1 5.015 1.177c.328.573.504 1.213.527 1.871l9.055-5.221a3.526 3.526 0 0 1 4.803 1.261 3.544 3.544 0 0 1-.818 4.548c3.141-1.304 5.706-2.244 7.805-2.911.764-.485 1.183-.749 1.237-.785a3.51 3.51 0 0 1 2.734-.437c.098.021.177.048.273.076 3.25-.67 4.646-.331 5.664-.085 2.025.485 3.068 1.659 3.584 2.553.479.831.601 1.822.34 2.744a3.53 3.53 0 0 1-1.747 2.146c-.127.067-2.152 1.137-5.797 3.072.352.309.648.673.885 1.085.23.392.455.852.637 1.38.631-.443 1.256-.876 1.862-1.31a3.536 3.536 0 0 1 2.802-.567c.315.073.618.185.903.336 4.87-1.928 8.29-2.617 10.4-2.116 1.904.452 2.905 1.577 3.408 2.447.491.849.606 1.88.321 2.817-.491 1.592-.564 1.822-18.86 10.707-3.25 2.741-7.659 5.867-13.178 9.391-.024.019-.049.037-.061.052 18.732-10.716 30.315-17.302 30.619-17.48a3.54 3.54 0 0 1 4.815 1.316 3.53 3.53 0 0 1-1.298 4.815l-171.482 99.004a3353.047 3353.047 0 0 1-17.975 11.513L440.211 81.613a3.53 3.53 0 0 1 4.827 1.292c.225.388.449.906.546 1.54l5.379-3.102a3.52 3.52 0 0 1 4.822 1.291c1.777 3.078-.739 4.742-4.918 7.499a412.373 412.373 0 0 1-6.52 4.206c14.979-7.935 16.18-7.629 17.478-7.286.916.24 1.801.897 2.274 1.716a3.533 3.533 0 0 1-1.226 4.782l-9.065 5.506a10.587 10.587 0 0 1 4.021 3.981c.733 1.264 1.425 3.274.946 6.006 2.886-1.519 4.481-2.359 4.591-2.419a3.533 3.533 0 0 1 4.736 1.428c.139.251.248.521.327.792 2.067.722 3.189 2.025 3.778 3.053a3.527 3.527 0 0 1-1.22 4.782l-59.709 36.256a751.661 751.661 0 0 1-14.112 9.272c-19.758 12.684-44.294 27.354-73.294 43.812L128.457 324.686c1.756.085 3.836-.104 6.225-.558 6.541-3.712 25.713-14.567 51.811-29.497 22.417-14.148 53.857-32.554 98.094-56.614 5.416-3.163 10.85-6.337 16.289-9.524 38.042-22.274 67.872-40.106 91.263-54.367 33.7-22.766 63.713-43.633 84.883-58.661a3.555 3.555 0 0 1 2.802-.567 3.494 3.494 0 0 1 2.299 1.683c.582 1.003.722 2.216.4 3.411-.376 1.38-.946 3.46-10.825 10.974a3.508 3.508 0 0 1 1.855 1.559c.449.776.601 1.489.534 2.162a3.536 3.536 0 0 1 4.638 1.392c.935 1.622 1.813 4.339.68 8.09a15.88 15.88 0 0 1-.928 2.329l.078.021c2.28.509 3.754 1.613 4.682 2.705 2.905.958 4.452 2.71 5.252 4.096a3.529 3.529 0 0 1-1.255 4.803l-3.645 2.168c.406.285.764.664 1.03 1.128.521.904 1.025 2.398.449 4.375-.461 1.583-1.74 3.417-3.894 5.552a3.486 3.486 0 0 1 1.698 1.446 3.531 3.531 0 0 1-.988 4.721c-.2.146-6.362 4.466-16.805 11.692 9.981-5.225 15.853-8.26 16.064-8.366a3.528 3.528 0 0 1 4.64 1.304 3.542 3.542 0 0 1-.989 4.721c-.103.073-1.759 1.237-4.742 3.317a3.525 3.525 0 0 1 2.02 1.598 3.532 3.532 0 0 1-1.128 4.751c-.121.076-2.122 1.371-5.713 3.672.553.488.94 1.016 1.207 1.477a3.54 3.54 0 0 1-1.225 4.788L449.9 221.822a131.217 131.217 0 0 1 6.683-2.708 2598.758 2598.758 0 0 0 11.601-7.99 3.55 3.55 0 0 1 2.796-.546 3.523 3.523 0 0 1 2.28 1.68c.818 1.413.818 2.602-.127 3.942 2.571.667 3.911 2.18 4.591 3.341.958 1.665 1.843 4.463.618 8.323-2.056 6.486-10.012 14.955-24.13 25.637a6.654 6.654 0 0 1-.285 1.625c-.576 1.989-2.28 4.3-5.046 6.943.049.073.091.14.134.219.437.758.867 2.008.406 3.669-.467 1.68-1.237 4.457-15.337 14.718.51 1.031.612 2.232.255 3.415-.867 2.965-5.779 7.004-16.119 13.232.437.291.818.691 1.085 1.164.801 1.383 1.547 3.688.564 6.865-1.079 3.517-3.803 12.329-45.276 38.509a3.53 3.53 0 0 1-1.528 3.729l-23.196 14.985c.23.018.467.054.71.115a3.615 3.615 0 0 1 2.146 1.648c.558.977 1.092 2.59.437 4.743-.521 1.746-1.577 5.221-14.173 14.3-1.389 2.213-5.221 6.119-17.393 14.238-.333 1.152-1.061 2.833-6.471 7.102 1.037 3.196-2.717 5.737-7.756 9.133-3.996 2.711-9.527 6.187-15.416 9.886a3.8 3.8 0 0 1 1.231 1.291 3.542 3.542 0 0 1-1.019 4.646l-23.67 16.816c.03 1.522-.824 3.894-3.323 9.272a3.541 3.541 0 0 1-1.449 4.53 4.24 4.24 0 0 1-.771.334c-.042.03-.084.061-.121.091-.566.451-1.458 1.142-2.723 1.142zm-41.116-53.069c-3.545 3.147-5.846 5.889-6.607 8.103 4.776-.897 21.565-7.411 80.262-42.82 31.268-20.595 56.283-36.629 73.452-45.695a4820.36 4820.36 0 0 0 24.925-15.974c-11.153 5.913-24.743 12.941-41.123 21.364-.151.079-.31.152-.461.236a4910.313 4910.313 0 0 1-22.141 13.015c-44.828 26.179-89.765 51.407-108.307 61.771zm42.59-42.372a1105.35 1105.35 0 0 0-19.843 11.062c-7.247 4.16-13.145 7.721-17.947 10.759l37.79-21.821zm38.67-53.809L185.607 382.17a61.867 61.867 0 0 0 4.706-1.334c2.059-1.844 5.646-4.209 11.195-7.793 7.29-4.712 17.869-11.268 32.351-20.049 16.052-9.728 35.519-21.347 56.089-33.566 3.456-2.293 6.907-4.567 10.304-6.817zm-132.868 53.633c.2.225.57.406 1.098.54.2-.552.5-1.225 1.009-2.056a14.4 14.4 0 0 1-1.57.049c-.398.722-.513 1.195-.537 1.467zm14.073-4.196a62.694 62.694 0 0 0-2.265 2.116 94.375 94.375 0 0 1 2.611-2.226c-.116.038-.231.08-.346.11zm-1.419-20.704c-15.043 10.935-15.728 14.622-15.601 15.465.07.109.2.206.361.303 4.042-4.657 12.289-12.007 29.691-24.111l-14.451 8.343zM428.434 205.77c-29.32 15.664-67.387 36.28-105.186 57.557-45.859 25.81-82.349 47.526-108.462 64.537-20.961 13.657-32.681 22.656-39.221 28.502.779-.212 1.61-.448 2.49-.715 14.712-12.699 52.299-38.4 150.499-92.973 28.218-15.674 56.423-30.953 80.777-43.976a4677 4677 0 0 0 19.103-12.932zm-87.279 57.999c-3.766 2.087-7.544 4.179-11.315 6.277-44.932 25.003-80.832 46.004-106.709 62.426-7.132 4.53-13.202 8.521-18.381 12.05a439.657 439.657 0 0 0 5.733-2.844c22.647-14.693 59.027-36.599 117.67-69.601.298-.17.583-.34.886-.51 1.874-1.2 3.771-2.413 5.688-3.65a998.145 998.145 0 0 0 6.428-4.148zm-193.346 78.576c-.021.061-.043.121-.058.183-.167.558-.203.97-.179 1.273.804-.898 1.914-1.978 3.469-3.317l-3.232 1.861zm195.863-70.88a3723.916 3723.916 0 0 0-26.501 16.416c-23.196 14.512-46.18 29.225-66.583 42.438 14.952-8.6 32.756-19.097 53.988-31.911a2813.876 2813.876 0 0 0 33.196-21.086 3687.95 3687.95 0 0 0 27.436-17.854 8346.335 8346.335 0 0 0-21.536 11.997zm-133.143 39.339a4753.33 4753.33 0 0 0-27.62 19.019c4.933-2.845 10.552-6.21 16.953-10.2 10.831-6.762 22.663-14.494 35.234-22.905a1402.993 1402.993 0 0 1-24.567 14.086zm83.082 14.67c-1.564 1.037-3.111 2.056-4.658 3.081 4.804-2.923 9.74-5.961 14.821-9.115a8538.07 8538.07 0 0 0-10.163 6.034zm32.966-7.217a8944.242 8944.242 0 0 1-12.972 9.006c48.388-24.961 96.763-51.656 127.091-72.621 2.583-1.853 5.118-3.687 7.61-5.495.164-.112.334-.212.504-.3 4.196-3.111 7.908-6.067 11.062-8.833a1003.446 1003.446 0 0 1-9.739 5.831c-10.055 5.943-24.355 14.284-40.923 23.939-22.038 12.851-52.221 30.45-82.633 48.473zm64.476 2.529a5.264 5.264 0 0 1 2.159 2.062c.013.006.013.019.019.03 7.368-5.391 13.008-10.17 16.435-14.117a4695.83 4695.83 0 0 1-18.613 12.025zm-17.945-10.595a2522.65 2522.65 0 0 1-13.603 9.133l17.217-9.939c11.141-6.786 20.413-12.583 28.133-17.52l-31.747 18.326zm-250.633 2.56c-.397.418-.734.794-1.025 1.14 4.087-1.322 13.017-5.421 32.529-17.096a5476.759 5476.759 0 0 1-31.504 15.956zm116.311-31.305a1061.4 1061.4 0 0 0-2.969 1.929l7.393-4.27c-1.482.783-2.96 1.559-4.424 2.341zm-163.902-3.141c.597.322 2.047.57 5.528-.309-.012-.661.033-1.334.136-2.038a9.23 9.23 0 0 1-.767-.285 34.02 34.02 0 0 1-4.542.759 6.185 6.185 0 0 0-.276.752c-.197.654-.139.969-.079 1.121zm228.321-19.697c-2.486 1.722-4.942 3.42-7.375 5.112l17.133-10.191c-3.227 1.686-6.484 3.378-9.758 5.079zm-181.419-9.6c-8.102 4.163-15.397 7.965-21.483 11.234 5.965-2.877 13.057-6.561 21.483-11.234zm325.084-9.445c-6.393 3.12-15.556 8.22-28.679 16.477a813.989 813.989 0 0 0-6.289 3.999c13.597-7.926 25.956-15.143 34.968-20.476zm-316.115-3.214c-.336.225-.664.449-.995.676a9245.911 9245.911 0 0 1 37.966-19.175 19148.8 19148.8 0 0 0 30.21-15.213c3.605-2.319 7.235-4.66 10.889-7.028-28.439 15.054-55.519 29.099-78.07 40.74zm329.845-8.454c.752 0 1.438.07 2.056.209 2.517.561 3.826 2.028 4.481 3.159.206.373.357.722.461 1.059 2.025-2.441 3.396-4.654 4.015-6.595.546-1.704.127-2.419-.012-2.653-.485-.334-2.475-.977-9.667 1.482-.285.185-.576.376-.867.564a839.57 839.57 0 0 1-5.573 3.544c1.94-.508 3.65-.769 5.106-.769zm-15.343-123.646L244.732 226.012a5059.542 5059.542 0 0 1 47.26-26.671c28.223-15.734 56.465-31.174 81.645-44.797 33.566-20.974 59.406-35.719 76.132-42.323.916-1.376 1.553-2.641 1.898-3.79.254-.843.272-1.465.048-1.859-.376-.64-1.109-1.549-3.159-2.01-.977-.219-2.086-.322-3.299-.313zM201.366 208.801a2711.44 2711.44 0 0 1-24.151 15.361l12.623-7.287a3655.316 3655.316 0 0 0 16.274-10.479c-1.578.798-3.167 1.605-4.746 2.405zm115.556-9.472a9106.739 9106.739 0 0 0-24.888 16.371 3150.336 3150.336 0 0 0 29.922-16.78l83.258-50.559-88.292 50.968zm-179.917-3.536c-.273.182-.549.373-.822.558.506-.307 1.025-.616 1.534-.922-.237.122-.479.243-.712.364zm92.433-25.87c-1.728.97-3.447 1.943-5.151 2.905 1.04-.564 2.074-1.122 3.12-1.686.678-.41 1.345-.81 2.031-1.219zm43.269-7.911c-5.403 3.584-10.722 7.113-15.964 10.583 1.549-.807 3.102-1.61 4.642-2.42a12934.35 12934.35 0 0 0 15.641-10.331c-.419.215-.85.431-1.274.643-1.014.506-2.032 1.013-3.045 1.525zm-36.732-30.156c-5.097 2.708-11.686 6.489-20.191 11.741-.358.225-.718.446-1.079.67 6.067-3.163 11.774-6.18 16.822-8.936 1.777-1.31 3.242-2.458 4.448-3.475zm177.044-58.987c-.485.488-.995 1-1.547 1.531.771-.413 1.517-.813 2.244-1.198l.055-.179c.048-.158.085-.304.115-.443-.267.082-.565.176-.867.289z" fill="#d71a60"/></svg>