<svg id="svg7723" xmlns="http://www.w3.org/2000/svg" width="202.6" height="42.8" viewBox="-204 378.2 202.6 42.8"><style>.lite{fill:#5b5b5b}</style><path class="lite" d="M-158.4 399.6c0 11.8-9.6 21.4-21.4 21.4s-21.4-9.6-21.4-21.4 9.6-21.4 21.4-21.4 21.4 9.6 21.4 21.4"/><path d="M-181.1 405.3l1.4-5.2 3.3-1.2.9-3.1v-.1l-3.2 1.2 2.4-8.8h-6.6l-3.1 11.5-2.6 1-.9 3.2 2.6-1-1.8 6.7h17.7l1.2-4.2h-11.3" fill="#fff"/><path class="lite" d="M-148.3 417.9h-4.4v-36.2h4.4v36.2zm7-32.2c0-.7.2-1.3.6-1.8.4-.5 1.1-.7 1.9-.7.9 0 1.5.2 1.9.7.4.5.6 1.1.6 1.8s-.2 1.3-.6 1.8c-.4.4-1.1.7-1.9.7-.9 0-1.5-.2-1.9-.7-.4-.6-.6-1.2-.6-1.8zm4.8 32.2h-4.4v-25.5h4.4v25.5zm12.8-31.7v6.2h4.7v3.3h-4.7v15.9c0 1.1.2 1.8.6 2.4.4.5 1.2.7 2.1.7.5 0 1.2-.1 2-.3v3.5c-1.2.3-2.2.4-3.3.4-1.9 0-3.4-.5-4.4-1.8-1-1.2-1.5-2.9-1.5-5v-15.9h-4.6v-3.3h4.6v-6.2h4.4l.1.1zm20.5 32.2c-3.4 0-6.3-1.2-8.5-3.4-2.1-2.2-3.2-5.4-3.2-9.1v-.7c0-2.6.5-4.8 1.5-6.7 1-2 2.4-3.5 4.1-4.7 1.7-1.1 3.6-1.7 5.7-1.7 3.3 0 5.9 1.1 7.7 3.3 1.8 2.1 2.8 5.4 2.8 9.4v1.8h-17.2c.1 2.5.7 4.5 2.2 6.1 1.4 1.5 3.2 2.4 5.4 2.4 1.5 0 2.9-.3 4-1 1.1-.6 2-1.5 2.8-2.5l2.7 2c-2.5 3.1-5.7 4.8-10 4.8zm-.5-22.9c-1.7 0-3.2.6-4.4 1.9-1.2 1.3-1.9 3.1-2.2 5.4h12.7v-.3c-.1-2.2-.7-4-1.8-5.1-1.1-1.2-2.5-1.9-4.3-1.9zm25.8 19.3c1.6 0 2.9-.4 4.1-1.4 1.2-1 1.8-2.1 1.9-3.5h4.2c-.1 1.5-.5 2.9-1.5 4.2-1 1.3-2.1 2.4-3.7 3.2-1.5.7-3.2 1.2-4.9 1.2-3.4 0-6.2-1.2-8.2-3.4-2-2.4-3.1-5.5-3.1-9.5v-.7c0-2.5.4-4.7 1.4-6.6 1-1.9 2.2-3.4 4-4.5 1.7-1.1 3.7-1.6 6-1.6 2.9 0 5.2.9 7.2 2.6 1.9 1.7 2.9 4 3 6.6h-4.2c-.1-1.6-.7-3-1.9-4.1-1.2-1.1-2.5-1.6-4.2-1.6-2.2 0-4 .7-5.1 2.4-1.2 1.6-1.8 3.9-1.8 7v.9c0 2.9.6 5.2 1.8 6.7.9 1.3 2.7 2.1 5 2.1zm13.8-9.9c0-2.5.5-4.7 1.5-6.7s2.4-3.5 4.1-4.6c1.7-1.1 3.7-1.6 6-1.6 3.4 0 6.3 1.2 8.5 3.6 2.1 2.4 3.2 5.6 3.2 9.6v.3c0 2.5-.4 4.7-1.4 6.6-1 1.9-2.4 3.5-4.1 4.6-1.8 1.1-3.9 1.6-6.1 1.6-3.4 0-6.2-1.2-8.5-3.6-2.1-2.4-3.2-5.6-3.2-9.5v-.3zm4.4.6c0 2.8.6 5.1 1.9 6.9 1.3 1.7 3.1 2.6 5.2 2.6 2.2 0 4-.9 5.2-2.6 1.3-1.7 1.9-4.2 1.9-7.3 0-2.8-.6-5-2-6.9-1.3-1.7-3.1-2.6-5.2-2.6s-3.9.9-5.2 2.6c-1.4 1.7-1.8 4.1-1.8 7.3zm24.4-19.8c0-.7.2-1.3.6-1.8.4-.5 1.1-.7 1.9-.7.9 0 1.5.2 1.9.7.4.5.6 1.1.6 1.8s-.2 1.3-.6 1.8-1.1.7-1.9.7c-.9 0-1.5-.2-1.9-.7-.4-.6-.6-1.2-.6-1.8zm4.7 32.2H-35v-25.5h4.4v25.5zm11-25.5l.1 3.2c1.9-2.5 4.5-3.6 7.6-3.6 5.4 0 8.1 3 8.1 9.1v16.8h-4.4V401c0-1.8-.4-3.2-1.3-4.1-.9-.9-2.1-1.3-3.9-1.3-1.4 0-2.7.4-3.7 1.2s-1.9 1.7-2.5 3V418H-24v-25.5h4.3v-.1z"/></svg>