<svg xmlns="http://www.w3.org/2000/svg" width="512" height="145"><path fill="#0C3259" d="M49.547 72.931c-3.65 0-7.301-.016-10.951.007-1.788.011-3.097.74-3.625 2.582-1.201 4.186-6.298 22.926-7.633 28.113-.694 2.698-2.09 3.819-4.862 3.835-5.743.033-11.487.043-17.231.045-3.073.001-4.373-1.366-3.916-4.441.389-2.62 15.447-67.17 22.343-96.861.905-3.893 2.555-5.22 6.573-5.211 10.683.024 43.444.181 49.142.21 14.295.073 26.12 11.513 26.603 25.768.326 9.621-1.534 18.702-6.928 26.833-5.266 7.938-12.84 12.779-21.721 15.729-9.019 2.996-18.345 3.857-27.794 3.391zm.676-19.917c2.552-.188 4.689-.261 6.804-.517 5.331-.644 10.445-1.982 14.799-5.323 5.004-3.841 6.742-8.958 5.697-15.106-.947-5.57-4.604-8.625-9.665-10.296-5.231-1.728-10.639-1.787-16.051-1.346-2.725.222-4.501 1.749-5.167 4.512-.633 2.623-1.472 5.198-2.071 7.828-1.104 4.848-2.171 9.706-3.11 14.588-.6 3.119.483 4.668 3.522 5.191 1.857.319 3.765.345 5.242.469zm152.803 90.583c3.084 0 6.171-.076 9.251.027 1.983.066 3.529-.54 4.651-2.176 1.905-2.778 63.362-102.943 68.534-111.735 1.307-2.222.547-3.968-1.895-4.002-6.733-.095-13.469-.015-20.203.078-1.742.024-3.026.874-4.015 2.475-4.787 7.751-24.336 39.177-29.274 47.169-.291.47-1.07 1.02-1.497.931-.561-.117-1.05-.788-1.464-1.306-.215-.269-.221-.716-.287-1.089-.68-3.829-5.321-32.093-7.035-42.385-.727-4.369-2.895-6.147-7.314-6.112-4.604.037-9.206.177-13.81.268-3.56.071-5.597 2.416-5.095 5.929.275 1.924 12.385 66.749 14.477 77.448.09.458.197.99.053 1.402-.48 1.371-.891 2.815-1.648 4.033-4.68 7.538-9.451 15.021-14.179 22.529-.428.679-.935 1.374-1.117 2.131-.611 2.542-.787 4.229 2.893 4.152 2.991-.062 8.974.151 8.974.233zM149.829 99.17c-1.597.868-2.763 1.489-3.917 2.131-2.859 1.59-5.746 3.134-8.563 4.797-5.363 3.166-11.266 3.855-17.294 3.676-3.057-.091-6.178-.412-9.129-1.176-7.723-1.999-12.314-7.012-13.231-15.055-.757-6.641-.084-13.096 3.281-19.026 3.783-6.667 9.877-10.282 16.931-12.611 6.344-2.094 12.897-2.561 19.508-2.699 5.218-.108 10.435-.284 15.652-.438.615-.018 1.23-.158 1.841-.133 2.506.101 3.606-1.467 4.013-3.578.337-1.746.619-3.583.445-5.332-.351-3.529-2.253-5.65-5.766-6.032-4.271-.464-8.603-.707-12.894-.57-6.259.2-12.473 1.048-18.524 2.777-.949.271-1.845.728-2.761 1.111-2.413 1.009-4.603-.165-4.41-2.714.311-4.097.828-8.21 1.694-12.222.475-2.205 2.358-3.578 4.71-4.05a138.818 138.818 0 0 1 23.722-2.652c6.47-.169 12.897.05 19.242 1.478 5.784 1.302 10.621 4.252 14.699 8.477 4.423 4.582 5.913 10.201 4.786 16.3-2.092 11.323-9.353 45.539-10.68 51.361-.65 2.854-2.328 4.356-5.279 4.459-5.499.192-11.005.235-16.508.281-1.636.014-2.069-.553-1.974-2.225.113-1.967.251-3.934.406-6.335zm-2.094-29.032l-.002.114c-2.46.154-4.924.26-7.379.472-4.079.351-8.087 1.069-11.809 2.874-4.945 2.399-6.933 5.838-6.616 11.298.286 4.927 3.266 8.061 8.162 8.667 3.957.49 7.866.1 11.733-.667 3.086-.612 5.865-1.956 7.896-4.459 3.802-4.684 4.976-10.229 5.012-16.086.009-1.387-.875-2.135-2.308-2.198-1.56-.068-3.126-.015-4.689-.015z"/><path fill="#285D8B" d="M325.85 72.931c-3.65 0-7.301-.016-10.951.007-1.788.011-3.097.74-3.625 2.582-1.201 4.186-6.298 22.926-7.633 28.113-.694 2.698-2.09 3.819-4.862 3.835-5.743.033-11.487.043-17.231.045-3.073.001-4.373-1.366-3.916-4.441.389-2.62 15.447-67.17 22.343-96.861.905-3.894 2.554-5.221 6.573-5.212 10.683.024 43.444.181 49.142.21 14.295.073 26.12 11.513 26.603 25.768.326 9.621-1.534 18.702-6.928 26.833-5.266 7.938-12.841 12.779-21.721 15.729-9.019 2.997-18.344 3.858-27.794 3.392zm.676-19.917c2.552-.188 4.689-.261 6.804-.517 5.331-.644 10.445-1.982 14.799-5.323 5.004-3.841 6.742-8.958 5.697-15.106-.947-5.57-4.604-8.625-9.665-10.296-5.23-1.728-10.639-1.787-16.051-1.346-2.725.222-4.501 1.749-5.167 4.512-.633 2.623-1.472 5.198-2.071 7.828-1.104 4.848-2.171 9.706-3.11 14.588-.6 3.119.483 4.668 3.522 5.191 1.857.319 3.766.345 5.242.469zm99.015 46.191c-1.006.416-1.625.618-2.194.917a2663.412 2663.412 0 0 0-13.579 7.18c-4.39 2.34-9.196 2.551-13.98 2.564-4.031.011-8.03-.504-11.816-2.116-6.589-2.805-9.953-7.853-10.652-14.881-.491-4.936-.086-9.773 1.584-14.436 2.845-7.945 8.773-12.722 16.44-15.655 6.88-2.632 14.045-3.366 21.343-3.452 5.644-.067 11.287-.314 16.929-.512 3.453-.121 4.345-.743 5.116-4.089.387-1.681.528-3.492.375-5.207-.284-3.18-2.334-5.425-5.655-5.871-3.692-.496-7.452-.801-11.171-.713-6.971.165-13.886 1.015-20.627 2.928-.812.23-1.582.621-2.354.976-2.612 1.201-4.753-.017-4.532-2.84.298-3.812.766-7.63 1.478-11.385.428-2.258 2.034-3.934 4.4-4.342 4.8-.828 9.609-1.762 14.455-2.138 6.138-.476 12.324-.729 18.474-.554 7.958.227 15.635 1.745 22.072 7.027 3.893 3.195 6.89 6.932 7.761 12.033.616 3.607.198 7.197-.545 10.735-3.259 15.513-6.559 31.018-9.857 46.523-.882 4.146-2.266 5.395-6.447 5.53-5.074.165-10.152.202-15.229.253-1.826.019-2.181-.367-2.119-2.177.068-1.973.204-3.945.33-6.298zm.306-29.153c-3.22.199-6.735.294-10.221.663-3.963.42-7.87 1.201-11.445 3.109-3.276 1.749-5.598 4.271-6.034 8.089-.608 5.331 1.225 10.949 8.357 11.736 4.253.469 8.421.07 12.54-.92 3.833-.922 6.754-3.162 8.712-6.588 2.285-3.998 3.185-8.393 3.418-12.926.118-2.291-.862-3.138-3.192-3.161-.617-.007-1.234-.002-2.135-.002zm58.535 37.333c2.299-.057 2.81-.5 3.289-2.535 2.061-8.748 17.549-74.116 23.208-98.057.62-2.621-1.217-4.912-3.951-4.933-5.411-.042-10.821-.065-16.232-.068-3.282-.002-4.876 1.234-5.649 4.43-1.168 4.828-20.743 93.859-21.324 98.024-.281 2.016.842 2.944 2.869 2.93 2.895-.022 16.272.247 17.79.209z"/></svg>