<svg xmlns="http://www.w3.org/2000/svg" viewBox="0 0 250 250" class="swill-boilerplate-logo">
    <style>
    .swill-boilerplate-logo__circle{
        fill:#42AB94;
    }
    .swill-boilerplate-logo__mug-shadow,
    .swill-boilerplate-logo__foam-shadow,
    .swill-boilerplate-logo__straw-shadow{
        fill:#3A9F8D;
    }
    .swill-boilerplate-logo__arrows{
        fill:#4BB3A0;
    }
    .swill-boilerplate-logo__mug{
        fill:#BAD6B9;
    }
    .swill-boilerplate-logo__straw,
    .swill-boilerplate-logo__inner-straw{
        fill:#E94B4C;
    }
    .swill-boilerplate-logo__inner-straw{
        opacity:0.1;
    }
    .swill-boilerplate-logo__beer{
        fill:#F9E49D;
    }
    .swill-boilerplate-logo__beer-head{
        fill:#FDF3D2;
    }
    .swill-boilerplate-logo__foam,
    .swill-boilerplate-logo__text--swill{
        fill:#FFF;
    }
    .swill-boilerplate-logo__text--boilerplate{
        fill:#F7D067;
    }
    .swill-boilerplate-logo__text--swill-shadow,
    .swill-boilerplate-logo__text--boilerplate-shadow{
        opacity:0.65;
        fill:#3A9F8D;
    }
    </style>

    <circle class="swill-boilerplate-logo__circle" cx="125" cy="125" r="124" />

    <path class="swill-boilerplate-logo__mug-shadow" d="M89.322 154.695l99.04 76.89C224.666 209.955 249 170.327 249 125c0-.075-.005-.148-.006-.222L157.9 49.84 89.32 154.695z"/>

    <g class="swill-boilerplate-logo__arrows">
      <polygon points="126.861,43.038 119.802,43.038 123.36,29.814 119.802,16.478 126.861,16.478 130.418,29.702"/>
      <polygon points="123.36,206.962 130.418,206.962 126.861,220.186 130.418,233.522 123.36,233.522 119.802,220.298"/>
      <polygon points="114.018,43.773 107.046,44.877 108.491,31.26 102.891,18.644 109.863,17.54 115.445,30.045"/>
      <polygon points="136.203,206.227 143.175,205.123 141.73,218.74 147.33,231.356 140.358,232.46 134.775,219.955"/>
      <polygon points="114.018,43.773 107.046,44.877 108.491,31.26 102.891,18.644 109.863,17.54 115.445,30.045"/>
      <polygon points="136.203,206.227 143.175,205.123 141.73,218.74 147.33,231.356 140.358,232.46 134.775,219.955"/>
      <polygon points="101.448,46.508 94.734,48.69 94.031,35.014 86.527,23.429 93.24,21.248 100.71,32.726"/>
      <polygon points="148.773,203.492 155.486,201.31 156.19,214.986 163.694,226.571 156.981,228.752 149.511,217.274"/>
      <polygon points="89.46,51.177 83.171,54.381 80.337,40.983 71.113,30.716 77.402,27.511 86.576,37.679"/>
      <polygon points="160.761,198.823 167.05,195.619 169.884,209.017 179.108,219.284 172.819,222.489 163.645,212.321"/>
      <polygon points="78.351,57.662 72.64,61.811 67.745,49.022 57.028,40.324 62.739,36.175 73.39,44.782"/>
      <polygon points="171.87,192.338 177.581,188.189 182.476,200.978 193.193,209.676 187.482,213.825 176.831,205.218"/>
      <polygon points="68.393,65.806 63.401,70.798 56.566,58.931 44.62,52.017 49.612,47.025 61.478,53.861"/>
      <polygon points="181.828,184.194 186.82,179.202 193.655,191.069 205.601,197.983 200.609,202.975 188.743,196.139"/>
      <polygon points="59.831,75.408 55.682,81.118 47.074,70.467 34.194,65.507 38.343,59.796 51.133,64.691"/>
      <polygon points="190.39,174.592 194.539,168.882 203.147,179.533 216.027,184.493 211.878,190.204 199.088,185.309"/>
      <polygon points="52.876,86.23 49.672,92.519 39.504,83.346 26.007,80.462 29.211,74.172 42.609,77.006"/>
      <polygon points="197.344,163.77 200.549,157.481 210.717,166.654 224.214,169.538 221.009,175.828 207.612,172.994"/>
      <polygon points="47.701,98.007 45.52,104.721 34.042,97.251 20.26,96.513 22.441,89.8 36.117,90.503"/>
      <polygon points="202.52,151.993 204.701,145.279 216.179,152.749 229.961,153.487 227.78,160.2 214.104,159.497"/>
      <polygon points="44.431,110.449 43.327,117.421 30.822,111.839 17.094,113.266 18.198,106.294 31.816,104.849"/>
      <polygon points="205.789,139.551 206.894,132.579 219.399,138.161 233.127,136.734 232.022,143.706 218.405,145.151"/>
      <polygon points="43.148,123.249 43.148,130.308 29.924,126.751 16.588,130.308 16.588,123.249 29.812,119.692"/>
      <polygon points="207.072,126.751 207.072,119.692 220.296,123.249 233.633,119.692 233.633,126.751 220.408,130.308"/>
      <polygon points="43.884,136.093 44.988,143.064 31.37,141.62 18.755,147.219 17.651,140.247 30.155,134.665"/>
      <polygon points="206.337,113.907 205.233,106.936 218.851,108.38 231.466,102.781 232.57,109.753 220.066,115.335"/>
      <polygon points="46.619,148.663 48.8,155.376 35.124,156.079 23.54,163.583 21.359,156.87 32.836,149.4"/>
      <polygon points="203.602,101.337 201.421,94.624 215.097,93.921 226.681,86.417 228.862,93.13 217.385,100.6"/>
      <polygon points="51.287,160.65 54.492,166.939 41.094,169.774 30.826,178.998 27.622,172.708 37.789,163.535"/>
      <polygon points="198.934,89.35 195.729,83.061 209.127,80.226 219.395,71.002 222.599,77.292 212.432,86.465"/>
      <polygon points="57.773,171.76 61.922,177.47 49.132,182.365 40.434,193.082 36.285,187.371 44.893,176.72"/>
      <polygon points="192.448,78.24 188.299,72.53 201.089,67.635 209.787,56.918 213.936,62.629 205.328,73.28"/>
      <polygon points="65.917,181.718 70.908,186.709 59.042,193.545 52.127,205.49 47.136,200.499 53.971,188.633"/>
      <polygon points="184.304,68.282 179.313,63.291 191.179,56.455 198.094,44.51 203.085,49.501 196.25,61.367"/>
      <polygon points="75.518,190.28 81.229,194.429 70.578,203.036 65.617,215.916 59.906,211.767 64.801,198.978"/>
      <polygon points="174.703,59.72 168.992,55.571 179.643,46.964 184.604,34.084 190.315,38.233 185.42,51.022"/>
      <polygon points="86.341,197.234 92.63,200.439 83.457,210.606 80.572,224.104 74.283,220.899 77.116,207.502"/>
      <polygon points="163.88,52.766 157.591,49.561 166.764,39.394 169.649,25.896 175.938,29.101 173.104,42.498"/>
      <polygon points="98.118,202.41 104.831,204.591 97.361,216.068 96.624,229.851 89.91,227.67 90.613,213.994"/>
      <polygon points="152.103,47.59 145.39,45.409 152.859,33.932 153.597,20.149 160.311,22.33 159.607,36.006"/>
      <polygon points="110.56,205.679 117.531,206.783 111.949,219.288 113.377,233.017 106.405,231.912 104.96,218.294"/>
      <polygon points="139.661,44.321 132.689,43.217 138.272,30.712 136.844,16.983 143.816,18.088 145.261,31.706"/>
    </g>

    <g class="swill-boilerplate-logo__beer-mug">
      <path class="swill-boilerplate-logo__foam-shadow" d="M161.088 56.707c3.362 0 6.73-1.93 6.73-6.034 0-4.5-4.624-7.695-12.197-5.972-7.026-4.684-56.943 12.007-54.172 12.007h59.64z"/>
      <polyline class="swill-boilerplate-logo__straw-shadow" points="156.217,48.068 164.639,31.317 184.429,15.296 181.796,12.06 161.413,27.971 151.267,46.704"/>
      <path class="swill-boilerplate-logo__mug" d="M167.818 73.442h-4.94l-.163-16.368c0-4.944-2.15-4.868-10.72-4.868h-51.768c-8.91 0-9.203 0-9.4 4.868l-3.824 90.315c0 7.09 4 10.72 10.722 10.72h56.12c7.64 0 10.115-4.446 10.115-10.336l-.3-20.476c6.942-.306 18.58-3.13 18.58-15.22V88.584c0-11.562-2.714-15.143-14.422-15.143zm6.172 37.567c0 5.404-4.35 7.24-10.455 7.533L163 82.073h3.663c1.472 0 2.622.132 3.377.313 2.932.704 3.57 2.074 3.784 4.82.12 1.543.166 4.25.166 6.19v17.613z"/>
      <polygon class="swill-boilerplate-logo__straw" points="98.551,141.745 160.984,25.949 181.367,10.038 183.624,13.535 164.21,29.295 101.998,143.673"/>
      <path class="swill-boilerplate-logo__beer" d="M148.193 148.612h-45.188c-6.6 0-7.787-3.245-7.787-8.432l2.953-85.8h57.58v85.8c0 6.413-2.222 8.432-7.557 8.432z"/>
      <polygon class="swill-boilerplate-logo__beer-head" points="155.75,71.823 155.75,54.381 98.171,54.381 97.568,71.823"/>
      <polygon class="swill-boilerplate-logo__inner-straw" points="98.551,141.745 160.984,25.949 164.21,29.295 101.998,143.673"/>
      <path class="swill-boilerplate-logo__foam" d="M159.212 54.83c3.362 0 6.73-1.93 6.73-6.033 0-4.5-3.984-9.575-11.556-7.85-2.166-6.17-8.386-8.85-16.15-7.194-6.245-6.145-20.093-4.88-25.307 2.98-7.03-2.77-15.137-.188-17.713 6.305-4.527-1.036-8.2 2.644-8.2 6.313 0 4.088 2.714 5.482 5.485 5.482h66.71z"/>
    </g>

    <g class="swill-boilerplate-logo__text">
      <g class="swill-boilerplate-logo__text--boilerplate-shadow">
        <path d="M102.6 221.408c0 1.05-.134 2.025-.403 2.923-.272.9-.672 1.685-1.205 2.357-.53.67-1.19 1.196-1.97 1.575-.78.38-1.674.57-2.682.57-.7 0-1.39-.12-2.07-.352-.68-.232-1.375-.53-2.09-.896l2.78-14.386 3.46-.437-.7 3.57c-.103.496-.245 1.01-.427 1.542-.182.533-.4 1.107-.647 1.72.79-1.3 1.775-1.95 2.957-1.95.54 0 1.002.115 1.39.34.386.227.697.52.93.876.234.36.405.763.515 1.217.107.45.163.896.163 1.333zm-4.05-1.183c-.218 0-.448.154-.69.46-.24.307-.474.71-.7 1.204-.227.496-.437 1.047-.635 1.652s-.36 1.202-.493 1.784l-.218.898c.19.06.408.087.657.087.512 0 .935-.185 1.27-.557.337-.372.604-.82.8-1.346.198-.526.336-1.073.418-1.642.08-.57.12-1.044.12-1.424 0-.306-.036-.568-.11-.79-.074-.215-.213-.325-.418-.325z"/>
        <path d="M109.74 217.577c.743 0 1.367.112 1.87.338.505.228.905.522 1.205.888.298.364.514.78.645 1.247.13.467.197.94.197 1.423 0 1.02-.135 1.982-.406 2.88-.27.897-.665 1.684-1.19 2.364-.527.678-1.172 1.215-1.94 1.61-.766.392-1.644.59-2.637.59-.744 0-1.364-.11-1.862-.33-.494-.217-.897-.51-1.202-.874-.307-.364-.526-.778-.657-1.238-.132-.46-.196-.93-.196-1.412 0-1.008.135-1.962.404-2.868.27-.905.668-1.7 1.194-2.388.526-.685 1.17-1.23 1.938-1.63.767-.4 1.646-.6 2.64-.6zm-.46 2.453c-.352 0-.665.17-.942.514-.28.342-.51.772-.69 1.29-.183.52-.322 1.083-.417 1.688-.094.605-.14 1.17-.14 1.697 0 .436.075.755.23.95.153.197.36.296.623.296.35 0 .66-.17.93-.514s.497-.772.68-1.292c.182-.516.32-1.076.416-1.674.094-.598.14-1.152.14-1.664 0-.452-.075-.78-.23-.985-.153-.207-.354-.307-.6-.307z"/>
        <path d="M117.162 228.787c-.774 0-1.372-.194-1.796-.58-.423-.386-.636-.9-.636-1.544 0-.103.007-.21.023-.328.015-.116.036-.233.066-.35l1.618-8.08h3.35l-1.423 7.247c-.03.19-.05.313-.065.372-.015.06-.023.125-.023.198 0 .102.015.194.044.273.03.08.11.12.242.12.074 0 .165-.01.273-.033.11-.02.213-.047.308-.076.095-.03.182-.06.262-.087.082-.03.13-.044.142-.044v2.365c-.234.117-.48.212-.744.286-.218.072-.47.135-.756.186-.284.048-.58.075-.885.075zm1.598-16.006c.628 0 1.087.16 1.38.472.292.315.438.742.438 1.28 0 .527-.186.982-.56 1.37-.372.386-.87.58-1.5.58-.627 0-1.087-.16-1.38-.482-.29-.32-.436-.736-.436-1.25 0-.523.182-.984.547-1.377.363-.394.868-.592 1.51-.592z"/>
        <path d="M126.203 228.196c-.264.1-.54.19-.833.262-.25.074-.533.135-.854.186-.32.05-.65.076-.985.076-.817 0-1.426-.188-1.827-.57-.402-.377-.602-.89-.602-1.53 0-.103.008-.212.022-.33.015-.117.036-.233.066-.35l2.475-12.743 3.414-.437-2.365 12.392c-.03.19-.05.313-.065.372-.015.06-.023.125-.023.198 0 .102.02.194.055.273.035.08.126.12.272.12.087 0 .198-.01.328-.033.13-.02.264-.05.395-.087.13-.036.245-.068.34-.1.095-.028.156-.043.186-.043v2.344z"/>
        <path d="M127.386 225.065c0-1.008.135-1.962.404-2.868s.668-1.7 1.194-2.388c.526-.686 1.17-1.23 1.938-1.63.767-.403 1.645-.603 2.638-.603 1.226 0 2.11.247 2.65.744.538.496.81 1.147.81 1.948 0 .613-.15 1.183-.45 1.708-.3.526-.724.985-1.27 1.38-.548.395-1.2.716-1.95.964-.752.25-1.57.416-2.462.503 0 .06-.004.135-.01.23-.01.095-.012.178-.012.252 0 .364.103.628.308.788.203.16.46.24.765.24.204 0 .485-.042.842-.13.36-.087.72-.19 1.084-.307.423-.13.87-.285 1.336-.46l.744 2.235c-.495.25-1.006.46-1.532.635-.454.16-.953.304-1.5.427-.548.123-1.083.186-1.608.186-.744 0-1.365-.108-1.862-.328-.495-.218-.898-.51-1.203-.875-.307-.364-.525-.778-.656-1.238-.134-.46-.198-.93-.198-1.412zm5.648-4.948c-.38 0-.73.215-1.05.645-.322.43-.57.99-.745 1.676.787-.102 1.39-.332 1.806-.69.416-.358.624-.705.624-1.04 0-.394-.213-.59-.636-.59z"/>
        <path d="M145.228 221.3c-.16-.162-.336-.31-.526-.44s-.43-.198-.72-.198c-.206 0-.4.078-.582.23-.182.154-.35.355-.503.603-.154.247-.288.528-.406.843-.115.313-.21.63-.284.95l-1.05 5.344h-3.395l1.12-5.605c.07-.364.126-.704.162-1.017.036-.315.055-.603.055-.865 0-.685-.09-1.234-.273-1.642-.182-.408-.317-.687-.404-.833l2.758-1.072c.205.234.357.507.46.822.102.313.153.645.153.996 0 .16-.01.357-.03.59-.024.234-.064.585-.123 1.05.364-1.24.81-2.12 1.336-2.637.526-.52 1.175-.78 1.95-.78.422 0 .81.064 1.17.187.357.125.668.332.93.624l-1.795 2.85z"/>
        <path d="M147.812 223.028c.074-.364.13-.704.165-1.017.036-.314.055-.602.055-.864 0-.685-.09-1.234-.273-1.642-.185-.408-.32-.687-.407-.833l2.76-1.07c.203.233.357.506.46.82.102.314.153.646.153.997 0 .16-.008.353-.023.58-.015.227-.06.557-.13.996l.284-.613c.467-1.02.997-1.733 1.587-2.135.592-.4 1.23-.602 1.917-.602.54 0 1.003.114 1.39.34.387.226.696.518.93.875.234.36.406.763.516 1.217.108.452.163.898.163 1.334 0 1.05-.136 2.024-.405 2.922-.272.898-.672 1.684-1.205 2.356-.533.67-1.19 1.196-1.97 1.575-.782.38-1.683.57-2.705.57-.19 0-.368-.01-.535-.022-.17-.014-.332-.037-.493-.066l-.83 4.314-3.417.437 2.012-10.467zm2.736 3.196c.19.06.418.087.68.087.495 0 .913-.185 1.25-.557.333-.372.6-.82.798-1.346.196-.526.334-1.073.416-1.642.08-.57.12-1.044.12-1.424 0-.306-.032-.568-.1-.79-.064-.217-.2-.327-.403-.327-.22 0-.45.154-.69.46-.24.307-.478.71-.712 1.204-.235.497-.454 1.063-.657 1.697-.204.636-.38 1.274-.525 1.917l-.177.724z"/>
        <path d="M163.424 228.196c-.264.1-.54.19-.833.262-.248.074-.532.135-.853.186-.32.05-.65.076-.985.076-.818 0-1.427-.188-1.828-.57-.402-.377-.602-.89-.602-1.53 0-.103.008-.212.02-.33.016-.117.037-.233.067-.35l2.474-12.743 3.414-.437-2.365 12.392c-.03.19-.05.313-.065.372-.015.06-.023.125-.023.198 0 .102.02.194.055.273.036.08.127.12.273.12.087 0 .197-.01.328-.033.132-.02.265-.05.396-.087.13-.036.245-.068.34-.1.095-.028.156-.043.186-.043v2.344z"/>
        <path d="M167.605 228.83c-.554 0-1.02-.114-1.4-.34-.38-.226-.688-.518-.922-.875-.234-.36-.404-.76-.514-1.205-.11-.444-.164-.894-.164-1.346 0-1.05.135-2.025.404-2.923.27-.897.672-1.68 1.205-2.352.53-.672 1.188-1.198 1.97-1.577.78-.38 1.682-.568 2.705-.568.48 0 .915.04 1.302.12.387.08.784.215 1.194.405l1.752.11-.92 4.773c-.073.35-.128.68-.164.994-.038.315-.055.604-.055.866 0 .613.07 1.135.217 1.566.146.43.364.873.657 1.325l-2.758 1.096c-.22-.25-.406-.552-.56-.91-.152-.356-.23-.754-.23-1.193 0-.175.004-.372.01-.59.01-.22.026-.475.056-.767l-.284.613c-.467 1.007-.997 1.722-1.587 2.146-.59.424-1.228.634-1.915.634zm1.052-2.583c.218 0 .452-.16.7-.482.248-.32.486-.73.712-1.226.225-.496.434-1.04.624-1.63.19-.593.35-1.15.482-1.677l.218-.985c-.16-.06-.38-.087-.657-.087-.51 0-.93.187-1.258.56-.33.37-.593.82-.79 1.345-.2.526-.337 1.074-.417 1.644-.08.568-.12 1.043-.12 1.42 0 .308.032.57.1.79.064.217.2.327.404.327z"/>
        <path d="M176.452 217.906h2.145l.898-2.52 3.044-.68-.637 3.2h2.234l-.395 2.538h-2.32l-.92 4.64c-.03.075-.047.185-.055.33-.007.145-.01.255-.01.327 0 .147.042.257.13.33.087.073.256.11.505.11.13 0 .294-.018.49-.056.2-.036.392-.076.582-.12.218-.06.438-.123.657-.198v2.475c-.26.103-.56.19-.897.263-.292.074-.628.13-1.008.175-.38.043-.788.066-1.226.066-1.007 0-1.722-.178-2.146-.537-.423-.357-.636-.88-.636-1.564 0-.118.007-.252.023-.406.014-.154.037-.296.065-.427l1.095-5.407h-1.62v-2.537z"/>
        <path d="M183.588 225.065c0-1.008.135-1.962.404-2.868.27-.905.668-1.7 1.194-2.388.526-.686 1.17-1.23 1.938-1.63.767-.403 1.645-.603 2.638-.603 1.226 0 2.11.247 2.65.744.54.496.81 1.147.81 1.948 0 .613-.15 1.183-.45 1.708-.3.526-.723.985-1.27 1.38-.547.395-1.198.716-1.95.964-.75.25-1.57.416-2.46.503 0 .06-.005.135-.012.23s-.01.178-.01.252c0 .364.102.628.307.788.203.16.46.24.765.24.205 0 .486-.042.842-.13.36-.087.72-.19 1.084-.307.423-.13.87-.285 1.336-.46l.744 2.235c-.495.25-1.006.46-1.532.635-.454.16-.953.304-1.5.427-.548.123-1.083.186-1.608.186-.744 0-1.364-.108-1.862-.328-.495-.218-.898-.51-1.203-.875-.308-.364-.526-.778-.657-1.238-.134-.46-.198-.93-.198-1.412zm5.648-4.948c-.38 0-.73.215-1.05.645-.322.43-.57.99-.745 1.676.79-.102 1.392-.332 1.808-.69.416-.358.625-.705.625-1.04 0-.394-.214-.59-.637-.59z"/>
      </g>

      <g class="swill-boilerplate-logo__text--boilerplate">
        <path d="M100.116 219.324c0 1.05-.135 2.025-.404 2.923-.272.898-.672 1.683-1.205 2.356-.53.67-1.19 1.196-1.97 1.575-.78.38-1.674.57-2.682.57-.7 0-1.39-.12-2.07-.352-.68-.232-1.375-.53-2.09-.896l2.78-14.386 3.46-.437-.7 3.568c-.103.497-.245 1.01-.427 1.543-.182.533-.4 1.107-.647 1.72.79-1.3 1.776-1.95 2.958-1.95.54 0 1.002.115 1.39.34.386.227.697.52.93.876.234.36.405.763.515 1.217.108.45.163.897.163 1.334zm-4.05-1.182c-.218 0-.448.154-.69.46-.24.307-.474.71-.7 1.204-.227.497-.437 1.048-.635 1.653-.197.604-.36 1.2-.492 1.783l-.218.898c.19.06.408.088.657.088.51 0 .934-.186 1.27-.558.336-.372.603-.82.8-1.346.197-.526.335-1.073.417-1.642.08-.57.12-1.044.12-1.424 0-.307-.037-.57-.11-.79-.075-.216-.213-.326-.418-.326z"/>
        <path d="M107.254 215.494c.744 0 1.368.112 1.87.338.506.228.906.522 1.206.888.298.364.514.78.645 1.247.13.467.198.94.198 1.423 0 1.02-.135 1.982-.406 2.88-.27.897-.666 1.684-1.192 2.364-.526.678-1.17 1.215-1.938 1.61-.767.392-1.645.59-2.638.59-.745 0-1.365-.11-1.863-.33-.495-.217-.898-.51-1.203-.874-.307-.364-.526-.778-.657-1.238-.133-.46-.197-.93-.197-1.412 0-1.008.135-1.962.404-2.868.27-.905.668-1.7 1.194-2.388.526-.685 1.17-1.23 1.938-1.63.767-.4 1.646-.6 2.638-.6zm-.46 2.452c-.35 0-.663.17-.94.514-.28.342-.51.772-.69 1.29-.183.52-.322 1.083-.417 1.688-.095.605-.142 1.17-.142 1.697 0 .437.076.756.23.95.154.198.362.297.624.297.35 0 .66-.17.93-.514s.496-.772.68-1.292c.18-.516.32-1.076.415-1.674.095-.598.142-1.152.142-1.664 0-.452-.076-.78-.23-.985-.154-.206-.355-.307-.602-.307z"/>
        <path d="M114.677 226.703c-.774 0-1.372-.194-1.796-.58-.422-.386-.635-.9-.635-1.544 0-.104.007-.212.023-.33.015-.115.036-.232.066-.35l1.62-8.078h3.35l-1.424 7.246c-.03.19-.05.313-.065.372-.015.06-.023.125-.023.198 0 .102.015.194.044.273.03.082.11.122.24.122.075 0 .166-.01.274-.034.11-.02.213-.047.308-.076.095-.03.182-.06.262-.087.082-.03.13-.043.142-.043v2.365c-.234.116-.48.21-.744.285-.218.072-.47.135-.756.186-.283.05-.58.075-.885.075zm1.598-16.005c.628 0 1.087.158 1.38.47.292.316.438.743.438 1.282 0 .526-.186.98-.56 1.368-.372.387-.87.58-1.5.58-.627 0-1.087-.16-1.38-.48-.29-.322-.436-.737-.436-1.25 0-.524.182-.985.547-1.378.365-.395.87-.592 1.51-.592z"/>
        <path d="M123.72 226.113c-.265.1-.542.19-.834.262-.25.074-.533.135-.854.186-.32.052-.65.077-.985.077-.818 0-1.427-.188-1.828-.57-.403-.377-.602-.89-.602-1.53 0-.103.007-.212.02-.33.016-.117.037-.233.067-.35l2.475-12.743 3.414-.437-2.365 12.392c-.03.19-.052.312-.066.37-.015.06-.023.126-.023.2 0 .1.02.193.056.272.036.08.127.12.273.12.086 0 .197-.01.327-.033.13-.022.264-.052.395-.088.13-.036.245-.068.34-.1.095-.028.156-.043.186-.043v2.343z"/>
        <path d="M124.9 222.98c0-1.007.136-1.96.405-2.867.27-.905.668-1.7 1.194-2.388.525-.685 1.17-1.23 1.937-1.63.767-.402 1.645-.602 2.638-.602 1.226 0 2.11.247 2.65.744.538.495.81 1.146.81 1.947 0 .613-.15 1.183-.45 1.708-.3.526-.724.985-1.27 1.38-.548.395-1.2.716-1.95.964-.752.25-1.57.416-2.462.503 0 .058-.004.134-.01.23-.01.094-.012.177-.012.25 0 .365.104.63.31.79.202.16.458.24.764.24.205 0 .486-.043.843-.13.36-.088.72-.19 1.084-.308.424-.13.87-.285 1.337-.46l.744 2.235c-.494.25-1.005.46-1.53.634-.455.162-.954.305-1.5.428-.55.123-1.084.186-1.61.186-.743 0-1.364-.108-1.86-.328-.496-.218-.9-.51-1.204-.875-.308-.363-.526-.777-.657-1.237-.134-.46-.2-.93-.2-1.412zm5.65-4.947c-.38 0-.73.215-1.05.645s-.57.99-.745 1.676c.788-.102 1.39-.332 1.807-.69.416-.358.624-.705.624-1.04 0-.393-.213-.59-.636-.59z"/>
        <path d="M142.744 219.216c-.16-.16-.336-.308-.526-.44-.19-.13-.43-.197-.72-.197-.206 0-.4.077-.582.23-.182.153-.35.354-.503.602-.154.247-.288.528-.406.843-.116.313-.21.63-.285.95l-1.05 5.344h-3.395l1.118-5.606c.072-.364.127-.704.163-1.017.036-.315.055-.603.055-.865 0-.685-.09-1.234-.273-1.642-.182-.408-.317-.687-.404-.833l2.758-1.072c.205.234.357.507.46.822.102.313.153.645.153.996 0 .16-.01.357-.032.59-.023.234-.063.585-.122 1.05.364-1.24.81-2.12 1.336-2.637.525-.518 1.174-.778 1.948-.778.423 0 .812.063 1.17.186.358.125.67.332.93.624l-1.794 2.848z"/>
        <path d="M145.327 220.945c.074-.364.13-.704.165-1.017.036-.315.055-.603.055-.865 0-.685-.09-1.234-.273-1.642-.184-.407-.32-.686-.406-.832l2.76-1.072c.203.234.357.507.46.822.102.313.153.645.153.996 0 .16-.007.353-.022.58-.015.227-.06.557-.13.996l.284-.613c.467-1.02.997-1.733 1.587-2.135.59-.4 1.23-.6 1.916-.6.54 0 1.002.113 1.39.34.386.225.695.517.93.874.233.36.405.763.515 1.217.11.452.164.898.164 1.334 0 1.05-.135 2.025-.404 2.923-.272.898-.672 1.683-1.205 2.356-.533.67-1.19 1.196-1.97 1.575-.782.38-1.683.57-2.705.57-.19 0-.368-.008-.535-.02-.17-.016-.332-.04-.493-.068l-.83 4.314-3.417.437 2.012-10.468zm2.737 3.196c.19.06.418.088.68.088.495 0 .913-.186 1.25-.558.333-.372.6-.82.798-1.346.196-.526.334-1.073.416-1.642.08-.57.12-1.044.12-1.424 0-.307-.032-.57-.1-.79-.064-.218-.2-.328-.403-.328-.218 0-.45.154-.69.46-.24.307-.477.71-.71 1.204-.236.497-.455 1.063-.658 1.697-.205.637-.382 1.275-.526 1.918l-.176.723z"/>
        <path d="M160.94 226.113c-.264.1-.54.19-.833.262-.25.074-.533.135-.854.186-.32.052-.65.077-.985.077-.818 0-1.427-.188-1.828-.57-.402-.377-.602-.89-.602-1.53 0-.103.008-.212.02-.33.016-.117.037-.233.067-.35l2.475-12.743 3.414-.437-2.365 12.392c-.03.19-.052.312-.066.37-.015.06-.023.126-.023.2 0 .1.02.193.056.272.036.08.127.12.273.12.086 0 .196-.01.327-.033.13-.022.264-.052.395-.088.13-.036.245-.068.34-.1.095-.028.156-.043.186-.043v2.343z"/>
        <path d="M165.12 226.747c-.553 0-1.02-.114-1.4-.34-.38-.226-.687-.518-.92-.875-.235-.36-.405-.76-.515-1.205-.108-.444-.163-.894-.163-1.346 0-1.05.135-2.024.404-2.922.27-.898.672-1.682 1.205-2.353.532-.672 1.19-1.198 1.97-1.577.78-.38 1.683-.57 2.706-.57.48 0 .915.04 1.302.122.387.08.784.214 1.194.404l1.752.11-.92 4.773c-.073.35-.128.68-.164.994-.038.316-.055.605-.055.867 0 .613.072 1.135.218 1.566.146.43.364.873.657 1.325l-2.758 1.095c-.22-.25-.406-.552-.56-.91-.152-.356-.23-.754-.23-1.193 0-.175.004-.372.01-.59.01-.22.026-.475.056-.767l-.284.613c-.467 1.008-.997 1.723-1.587 2.147-.59.423-1.23.634-1.916.634zm1.052-2.583c.218 0 .452-.16.7-.482.248-.32.486-.73.712-1.226.226-.495.435-1.04.625-1.63.19-.592.348-1.15.48-1.676l.22-.985c-.162-.06-.38-.087-.658-.087-.51 0-.93.186-1.258.558-.328.372-.592.822-.79 1.346-.198.526-.336 1.074-.416 1.644-.08.57-.12 1.044-.12 1.42 0 .31.032.57.1.79.064.218.2.328.404.328z"/>
        <path d="M173.967 215.822h2.145l.898-2.52 3.044-.68-.636 3.2h2.234l-.395 2.538h-2.32l-.92 4.64c-.03.075-.047.185-.055.33-.007.145-.01.255-.01.327 0 .146.042.256.13.33.087.072.256.108.505.108.13 0 .294-.017.49-.055.2-.036.392-.076.582-.12.217-.06.437-.123.656-.198v2.475c-.262.102-.562.19-.898.262-.292.073-.628.13-1.008.174-.38.043-.788.066-1.226.066-1.006 0-1.72-.178-2.145-.537-.424-.357-.637-.88-.637-1.564 0-.12.007-.253.023-.407.013-.154.036-.296.064-.427l1.095-5.407h-1.62v-2.538z"/>
        <path d="M181.103 222.98c0-1.007.135-1.96.404-2.867.27-.905.668-1.7 1.194-2.388.527-.685 1.172-1.23 1.94-1.63.766-.402 1.644-.602 2.637-.602 1.226 0 2.11.247 2.65.744.54.495.81 1.146.81 1.947 0 .613-.15 1.183-.45 1.708-.3.526-.723.985-1.27 1.38-.547.395-1.198.716-1.95.964-.75.25-1.57.416-2.46.503 0 .058-.005.134-.012.23-.007.094-.01.177-.01.25 0 .365.102.63.307.79.203.16.46.24.765.24.205 0 .486-.043.842-.13.358-.088.72-.19 1.083-.308.423-.13.87-.285 1.336-.46l.743 2.235c-.495.25-1.006.46-1.532.634-.453.162-.952.305-1.498.428-.55.123-1.084.186-1.61.186-.743 0-1.363-.108-1.86-.328-.496-.218-.9-.51-1.204-.875-.308-.363-.526-.777-.657-1.237-.132-.46-.197-.93-.197-1.412zm5.65-4.947c-.38 0-.732.215-1.052.645-.32.43-.568.99-.743 1.676.788-.102 1.39-.332 1.807-.69.416-.358.625-.705.625-1.04-.002-.393-.215-.59-.638-.59z"/>
      </g>

      <g class="swill-boilerplate-logo__text--swill-shadow">
        <path d="M84.606 169.06c1.955 0 3.593.22 4.912.657 1.317.44 2.395 1.03 3.234 1.767.84.74 1.497 1.577 1.976 2.517.48.94.88 1.908 1.198 2.905l-7.546 3.475c-.44-1.277-.91-2.247-1.408-2.906-.5-.66-1.287-.99-2.365-.99-1.16 0-2.078.33-2.756.99-.68.658-1.018 1.448-1.018 2.367 0 1.16.26 2.038.78 2.635.518.6 1.198 1.198 2.036 1.797l5.27 3.893c1.56 1.16 2.787 2.538 3.685 4.134.898 1.597 1.348 3.514 1.348 5.75 0 2.116-.428 3.963-1.288 5.54-.858 1.577-2.016 2.885-3.473 3.923-1.46 1.04-3.127 1.818-5.002 2.336-1.877.517-3.834.777-5.87.777-2.915 0-5.45-.328-7.607-.987-2.155-.66-4.072-1.448-5.75-2.367l4.193-7.427c1.477.88 2.955 1.645 4.434 2.306 1.477.66 2.995.987 4.55.987 1.64 0 2.947-.35 3.924-1.05.98-.697 1.47-1.785 1.47-3.263 0-1.158-.28-2.105-.84-2.845-.56-.738-1.297-1.446-2.216-2.126l-4.253-3.117c-.958-.718-1.795-1.438-2.514-2.157-.72-.717-1.317-1.497-1.798-2.336-.478-.837-.848-1.756-1.108-2.754-.26-.998-.39-2.116-.39-3.356 0-1.756.36-3.323 1.08-4.7.718-1.38 1.717-2.537 2.994-3.474 1.277-.94 2.775-1.657 4.492-2.158 1.715-.496 3.594-.746 5.63-.746z"/>
        <path d="M138.635 179.84c.598 1.278 1.027 2.527 1.287 3.744.26 1.22.39 2.287.39 3.206 0 1.795-.19 3.623-.568 5.48-.382 1.857-.93 3.652-1.647 5.39-.72 1.738-1.598 3.364-2.636 4.883-1.037 1.518-2.216 2.836-3.533 3.953-2.875 2.515-6.31 3.773-10.302 3.773-1.28 0-2.407-.18-3.384-.54-.978-.36-1.867-1.038-2.666-2.036-1.158.8-2.386 1.427-3.684 1.886-1.298.46-2.725.69-4.282.69-2.636 0-4.743-.61-6.32-1.83-1.577-1.215-2.365-3.083-2.365-5.598 0-.24.02-.58.06-1.02.04-.438.09-.887.15-1.347.06-.46.12-.907.18-1.348.058-.44.11-.8.15-1.078l3.413-17.55h9.104l-3.414 17.79c-.08.32-.16.838-.24 1.557-.08.718-.12 1.238-.12 1.556 0 .64.14 1.16.42 1.558s.697.6 1.257.6c.96 0 1.828-.56 2.606-1.677.777-1.118 1.457-2.526 2.036-4.223.58-1.697 1.027-3.555 1.348-5.57.32-2.017.48-3.904.48-5.662 0-.598-.05-1.348-.15-2.245-.1-.9-.25-1.687-.45-2.367l8.026-1.976c.638 1.277 1.078 2.526 1.317 3.743.24 1.22.36 2.287.36 3.206 0 2.554-.36 5.13-1.077 7.726-.72 2.596-1.76 4.97-3.117 7.127.08.56.28 1.02.6 1.378.32.362.778.54 1.378.54.96 0 1.907-.558 2.846-1.676.938-1.118 1.786-2.526 2.545-4.223.76-1.696 1.38-3.554 1.86-5.57.477-2.016.717-3.903.717-5.66 0-.6-.05-1.35-.15-2.246-.1-.9-.248-1.687-.448-2.367l8.025-1.976z"/>
        <path d="M149.596 210.27c-2.116 0-3.754-.53-4.912-1.588-1.158-1.06-1.737-2.466-1.737-4.223 0-.28.02-.58.06-.9.04-.32.1-.64.18-.96l4.433-22.1h9.163l-3.893 19.825c-.08.52-.14.86-.18 1.02-.04.158-.06.34-.06.538 0 .28.04.53.12.748.08.22.3.33.66.33.2 0 .45-.03.75-.09.298-.06.577-.13.837-.21.26-.08.5-.16.72-.238.217-.08.348-.12.388-.12v6.47c-.64.32-1.317.578-2.037.777-.598.2-1.287.367-2.067.508-.777.14-1.586.21-2.424.21zm4.373-43.787c1.715 0 2.973.43 3.772 1.287.8.86 1.2 2.027 1.2 3.505 0 1.437-.512 2.686-1.53 3.743-1.018 1.06-2.387 1.587-4.102 1.587-1.718 0-2.976-.44-3.773-1.317-.8-.877-1.2-2.015-1.2-3.414 0-1.437.5-2.695 1.497-3.773 1-1.078 2.377-1.617 4.135-1.617z"/>
        <path d="M174.334 208.65c-.72.28-1.48.52-2.278.72-.68.2-1.458.37-2.334.51-.88.14-1.778.21-2.697.21-2.236 0-3.902-.52-5-1.557-1.1-1.038-1.648-2.435-1.648-4.193 0-.28.02-.58.06-.9.04-.32.1-.638.18-.96l6.77-34.86 9.343-1.198-6.468 33.903c-.08.52-.14.86-.18 1.02-.04.158-.06.34-.06.538 0 .28.05.53.15.748.1.22.348.33.75.33.238 0 .538-.03.897-.09.36-.06.718-.138 1.077-.24.36-.098.668-.19.928-.27.26-.08.43-.12.51-.12v6.41z"/>
        <path d="M192.423 208.65c-.72.28-1.48.52-2.278.72-.68.2-1.458.37-2.334.51-.878.14-1.777.21-2.696.21-2.236 0-3.902-.52-5-1.557-1.1-1.038-1.648-2.435-1.648-4.193 0-.28.02-.58.06-.9.04-.32.1-.638.18-.96l6.77-34.86 9.343-1.198-6.47 33.903c-.08.52-.14.86-.18 1.02-.04.158-.06.34-.06.538 0 .28.05.53.15.748.1.22.35.33.75.33.24 0 .54-.03.898-.09.36-.06.72-.138 1.078-.24.36-.098.668-.19.928-.27.26-.08.43-.12.51-.12v6.41z"/>
      </g>

      <g class="swill-boilerplate-logo__text--swill">
        <path d="M79.637 164.49c1.955 0 3.593.22 4.912.66 1.316.44 2.394 1.028 3.233 1.766.84.74 1.497 1.577 1.976 2.517.48.938.878 1.907 1.197 2.904l-7.546 3.475c-.44-1.277-.908-2.247-1.407-2.906-.5-.66-1.287-.99-2.365-.99-1.16 0-2.078.33-2.756.99-.68.658-1.02 1.448-1.02 2.367 0 1.158.26 2.037.78 2.634.52.6 1.2 1.198 2.037 1.797l5.27 3.893c1.558 1.16 2.786 2.538 3.684 4.134.898 1.6 1.348 3.516 1.348 5.752 0 2.116-.43 3.963-1.29 5.54-.857 1.577-2.015 2.885-3.472 3.923-1.458 1.04-3.126 1.818-5 2.336-1.878.52-3.835.78-5.87.78-2.916 0-5.452-.33-7.608-.988-2.156-.66-4.073-1.448-5.75-2.367l4.192-7.427c1.477.88 2.955 1.645 4.434 2.306 1.477.66 2.995.987 4.55.987 1.64 0 2.947-.348 3.924-1.047.98-.698 1.47-1.786 1.47-3.264 0-1.16-.282-2.106-.84-2.846-.56-.738-1.298-1.446-2.217-2.126l-4.253-3.117c-.96-.716-1.796-1.436-2.515-2.155-.72-.717-1.317-1.497-1.798-2.336-.48-.838-.85-1.757-1.11-2.755-.26-.998-.388-2.116-.388-3.356 0-1.757.36-3.324 1.078-4.702.72-1.378 1.718-2.536 2.995-3.473 1.277-.94 2.775-1.657 4.492-2.158 1.715-.496 3.594-.746 5.63-.746z"/>
        <path d="M133.666 175.273c.598 1.277 1.027 2.526 1.287 3.743.26 1.22.39 2.287.39 3.206 0 1.795-.19 3.623-.568 5.48-.382 1.857-.93 3.652-1.647 5.39-.72 1.738-1.598 3.364-2.636 4.883-1.038 1.518-2.217 2.836-3.534 3.953-2.875 2.515-6.31 3.773-10.302 3.773-1.28 0-2.407-.18-3.384-.538-.98-.36-1.868-1.038-2.667-2.036-1.158.8-2.386 1.427-3.684 1.886-1.297.46-2.724.69-4.28.69-2.637 0-4.744-.61-6.32-1.83-1.578-1.215-2.366-3.083-2.366-5.598 0-.24.02-.58.06-1.02.04-.438.09-.887.15-1.347.06-.46.12-.907.18-1.348.058-.44.11-.8.15-1.08l3.413-17.55h9.104l-3.413 17.79c-.08.322-.16.84-.24 1.56-.08.717-.12 1.237-.12 1.555 0 .64.14 1.16.42 1.558.278.4.697.598 1.257.598.96 0 1.828-.557 2.606-1.675.778-1.118 1.458-2.526 2.037-4.223.58-1.697 1.027-3.555 1.348-5.57.32-2.017.48-3.904.48-5.662 0-.598-.05-1.348-.15-2.245-.1-.9-.25-1.687-.45-2.367l8.026-1.976c.64 1.277 1.08 2.526 1.318 3.743.24 1.22.36 2.287.36 3.206 0 2.556-.36 5.13-1.077 7.728-.718 2.596-1.76 4.97-3.116 7.127.08.56.28 1.02.6 1.378.32.36.778.54 1.378.54.96 0 1.906-.56 2.845-1.677.938-1.118 1.786-2.526 2.545-4.223.76-1.697 1.378-3.555 1.858-5.57.478-2.017.718-3.904.718-5.662 0-.597-.05-1.347-.15-2.244-.1-.9-.248-1.687-.448-2.367l8.026-1.977z"/>
        <path d="M144.627 205.7c-2.116 0-3.754-.528-4.912-1.586-1.158-1.06-1.737-2.466-1.737-4.223 0-.278.02-.578.06-.9.04-.318.1-.637.18-.957l4.433-22.102h9.164l-3.893 19.827c-.078.52-.14.86-.18 1.02-.04.158-.058.34-.058.538 0 .28.038.53.12.748.08.22.3.33.658.33.2 0 .45-.03.75-.09.298-.06.577-.13.837-.21.26-.08.5-.16.72-.24.217-.08.348-.12.388-.12v6.47c-.64.32-1.317.58-2.037.778-.598.202-1.287.37-2.067.51-.776.14-1.585.21-2.423.21zM149 161.916c1.716 0 2.974.43 3.773 1.287.8.86 1.2 2.027 1.2 3.505 0 1.437-.512 2.686-1.53 3.743-1.018 1.06-2.387 1.587-4.102 1.587-1.717 0-2.975-.44-3.772-1.317-.8-.877-1.2-2.015-1.2-3.414 0-1.437.5-2.695 1.497-3.773 1-1.08 2.377-1.618 4.135-1.618z"/>
        <path d="M169.365 204.083c-.72.28-1.48.518-2.278.72-.68.2-1.458.368-2.334.51-.88.138-1.778.208-2.697.208-2.236 0-3.902-.517-5-1.555-1.1-1.038-1.648-2.435-1.648-4.193 0-.28.02-.58.06-.9.04-.32.1-.638.18-.96l6.77-34.86 9.343-1.198-6.467 33.903c-.08.52-.14.86-.18 1.02-.04.158-.06.34-.06.538 0 .28.05.53.15.748.1.22.348.33.75.33.238 0 .538-.03.897-.09.36-.06.72-.14 1.078-.24.36-.1.668-.19.928-.27.26-.08.43-.12.51-.12v6.41z"/>
        <path d="M187.454 204.083c-.72.28-1.48.518-2.278.72-.68.2-1.458.368-2.334.51-.88.138-1.778.208-2.697.208-2.236 0-3.902-.517-5-1.555-1.1-1.038-1.648-2.435-1.648-4.193 0-.28.02-.58.06-.9.04-.32.1-.638.18-.96l6.77-34.86 9.343-1.198-6.468 33.903c-.08.52-.14.86-.18 1.02-.04.158-.06.34-.06.538 0 .28.05.53.15.748.1.22.348.33.75.33.238 0 .538-.03.897-.09.36-.06.72-.14 1.077-.24.36-.1.668-.19.928-.27.26-.08.43-.12.51-.12v6.41z"/>
      </g>
    </g>
</svg>
