<?xml version="1.0" encoding="utf-8"?>
<!DOCTYPE svg PUBLIC "-//W3C//DTD SVG 1.1//EN" "http://www.w3.org/Graphics/SVG/1.1/DTD/svg11.dtd">
<svg version="1.1" id="Layer_1" xmlns="http://www.w3.org/2000/svg" xmlns:xlink="http://www.w3.org/1999/xlink" x="0px" y="0px"
	 viewBox="0 0 100 100" enable-background="new 0 0 100 100" xml:space="preserve">
<path fill="#3FAB96" d="M49.994,0.083c-27.565,0-49.91,22.345-49.91,49.908S22.429,99.9,49.994,99.9
	c27.564,0,49.909-22.345,49.909-49.908S77.558,0.083,49.994,0.083z"/>
<path fill="#3C9C89" d="M35.633,61.944l39.863,30.948c14.613-8.705,24.407-24.656,24.407-42.9c0-0.03-0.002-0.059-0.002-0.089
	L63.235,19.74L35.633,61.944z"/>
<g>
	<g>
		<polygon fill="#48B29E" points="50.742,17.002 47.901,17.002 49.333,11.68 47.901,6.312 50.742,6.312 52.174,11.635 		"/>
		<polygon fill="#48B29E" points="49.333,82.981 52.174,82.981 50.742,88.304 52.174,93.672 49.333,93.672 47.901,88.349 		"/>
		<polygon fill="#48B29E" points="45.573,17.298 42.766,17.743 43.348,12.262 41.094,7.184 43.9,6.739 46.147,11.773 		"/>
		<polygon fill="#48B29E" points="54.502,82.685 57.308,82.241 56.727,87.722 58.981,92.8 56.174,93.244 53.928,88.211 		"/>
		<polygon fill="#48B29E" points="45.573,17.298 42.766,17.743 43.348,12.262 41.094,7.184 43.9,6.739 46.147,11.773 		"/>
		<polygon fill="#48B29E" points="54.502,82.685 57.308,82.241 56.727,87.722 58.981,92.8 56.174,93.244 53.928,88.211 		"/>
		<polygon fill="#48B29E" points="40.513,18.399 37.811,19.277 37.528,13.773 34.508,9.11 37.21,8.232 40.216,12.852 		"/>
		<polygon fill="#48B29E" points="59.561,81.584 62.264,80.706 62.547,86.211 65.567,90.873 62.865,91.751 59.858,87.132 		"/>
		<polygon fill="#48B29E" points="35.688,20.278 33.157,21.568 32.016,16.175 28.303,12.043 30.835,10.753 34.527,14.845 		"/>
		<polygon fill="#48B29E" points="64.386,79.705 66.918,78.416 68.059,83.808 71.771,87.941 69.24,89.231 65.548,85.138 		"/>
		<polygon fill="#48B29E" points="31.217,22.888 28.918,24.558 26.948,19.411 22.635,15.91 24.933,14.24 29.22,17.704 		"/>
		<polygon fill="#48B29E" points="68.858,77.095 71.157,75.425 73.127,80.573 77.44,84.074 75.142,85.744 70.855,82.279 		"/>
		<polygon fill="#48B29E" points="27.209,26.166 25.2,28.175 22.448,23.399 17.64,20.616 19.649,18.607 24.425,21.358 		"/>
		<polygon fill="#48B29E" points="72.866,73.817 74.875,71.808 77.626,76.584 82.434,79.367 80.425,81.376 75.649,78.625 		"/>
		<polygon fill="#48B29E" points="23.763,30.031 22.093,32.329 18.628,28.043 13.444,26.046 15.114,23.747 20.262,25.717 		"/>
		<polygon fill="#48B29E" points="76.312,69.953 77.982,67.654 81.447,71.941 86.631,73.938 84.961,76.236 79.813,74.266 		"/>
		<polygon fill="#48B29E" points="20.963,34.387 19.674,36.918 15.581,33.226 10.148,32.065 11.438,29.534 16.831,30.674 		"/>
		<polygon fill="#48B29E" points="79.111,65.596 80.401,63.065 84.494,66.757 89.926,67.918 88.636,70.45 83.244,69.309 		"/>
		<polygon fill="#48B29E" points="18.88,39.127 18.002,41.829 13.383,38.823 7.835,38.526 8.713,35.824 14.218,36.107 		"/>
		<polygon fill="#48B29E" points="81.194,60.856 82.072,58.154 86.692,61.161 92.24,61.458 91.362,64.16 85.857,63.877 		"/>
		<polygon fill="#48B29E" points="17.564,44.135 17.12,46.941 12.087,44.694 6.561,45.269 7.006,42.463 12.487,41.881 		"/>
		<polygon fill="#48B29E" points="82.51,55.848 82.955,53.042 87.988,55.289 93.514,54.715 93.069,57.521 87.588,58.102 		"/>
		<polygon fill="#48B29E" points="17.048,49.287 17.048,52.128 11.725,50.696 6.358,52.128 6.358,49.287 11.68,47.855 		"/>
		<polygon fill="#48B29E" points="83.027,50.696 83.027,47.855 88.349,49.287 93.717,47.855 93.717,50.696 88.395,52.128 		"/>
		<polygon fill="#48B29E" points="17.344,54.456 17.788,57.263 12.307,56.681 7.23,58.935 6.785,56.129 11.818,53.882 		"/>
		<polygon fill="#48B29E" points="82.731,45.527 82.286,42.721 87.767,43.302 92.845,41.048 93.29,43.855 88.257,46.102 		"/>
		<polygon fill="#48B29E" points="18.445,59.516 19.323,62.218 13.818,62.501 9.156,65.521 8.278,62.819 12.897,59.813 		"/>
		<polygon fill="#48B29E" points="81.63,40.468 80.752,37.765 86.257,37.482 90.919,34.462 91.797,37.164 87.177,40.171 		"/>
		<polygon fill="#48B29E" points="20.324,64.341 21.613,66.872 16.221,68.013 12.088,71.726 10.798,69.194 14.891,65.502 		"/>
		<polygon fill="#48B29E" points="79.751,35.643 78.461,33.111 83.854,31.971 87.986,28.258 89.276,30.789 85.184,34.482 		"/>
		<polygon fill="#48B29E" points="22.934,68.812 24.604,71.111 19.456,73.081 15.955,77.395 14.285,75.096 17.75,70.809 		"/>
		<polygon fill="#48B29E" points="77.141,31.171 75.471,28.873 80.618,26.902 84.119,22.589 85.789,24.887 82.325,29.174 		"/>
		<polygon fill="#48B29E" points="26.212,72.82 28.221,74.829 23.445,77.581 20.662,82.389 18.653,80.38 21.404,75.604 		"/>
		<polygon fill="#48B29E" points="73.863,27.163 71.854,25.154 76.63,22.403 79.413,17.595 81.422,19.604 78.671,24.38 		"/>
		<polygon fill="#48B29E" points="30.077,76.267 32.375,77.937 28.088,81.401 26.091,86.585 23.793,84.915 25.763,79.768 		"/>
		<polygon fill="#48B29E" points="69.998,23.717 67.7,22.047 71.987,18.582 73.983,13.398 76.282,15.068 74.312,20.216 		"/>
		<polygon fill="#48B29E" points="34.433,79.066 36.964,80.355 33.272,84.448 32.111,89.881 29.579,88.591 30.72,83.198 		"/>
		<polygon fill="#48B29E" points="65.642,20.918 63.111,19.628 66.803,15.535 67.964,10.103 70.495,11.393 69.355,16.785 		"/>
		<polygon fill="#48B29E" points="39.173,81.149 41.875,82.027 38.868,86.646 38.571,92.194 35.869,91.316 36.152,85.811 		"/>
		<polygon fill="#48B29E" points="60.902,18.835 58.2,17.957 61.206,13.337 61.503,7.79 64.205,8.667 63.922,14.172 		"/>
		<polygon fill="#48B29E" points="44.181,82.465 46.987,82.909 44.74,87.942 45.315,93.468 42.508,93.024 41.927,87.542 		"/>
		<polygon fill="#48B29E" points="55.894,17.519 53.088,17.074 55.335,12.041 54.76,6.515 57.566,6.96 58.148,12.441 		"/>
	</g>
</g>
<path fill="#3C9C89" d="M64.599,22.572c1.65,0,2.257-0.858,2.257-2.032c0-1.733-1.239-3.818-4.429-3.274
	c-1.666-2.244-5.186-3.444-8.886-1.571c-2.721-1.841-4.676-2.004-7.624-0.092c-2.829-1.066-5.274-0.307-6.936,2.181
	c-1.637,0-2.617,1.399-2.617,3.013c0,0.968,1.028,1.775,2.424,1.775C43.073,22.572,62.446,22.572,64.599,22.572z"/>
<polyline fill="#3C9C89" points="62.558,19.027 65.947,12.285 73.913,5.836 72.853,4.534 64.649,10.938 60.565,18.478 "/>
<path fill="#B9D6B9" d="M67.297,29.177h-2.058l-0.066-3.989c0-2.373-1.942-4.315-4.315-4.315H40.021
	c-2.603,0-4.315,1.266-4.315,4.315L34.699,58.94c0,2.855,1.611,4.315,4.315,4.315h22.589c3.074,0,4.071-1.79,4.071-4.16
	l-0.121-8.241c2.794-0.123,6.824-0.769,6.824-5.636v-10.94C72.377,31.101,71.036,29.177,67.297,29.177z M69.203,44.46
	c0,2.176-1.242,2.752-3.7,2.87l-0.215-14.679h1.779c1.419,0,2.136,0.281,2.136,2.028V44.46z"/>
<polygon fill="#E94B4C" points="40.513,54.401 64.476,10.124 72.68,3.72 73.589,5.127 65.775,11.471 41.901,55.177 "/>
<path fill="#F9E59D" d="M59.328,58.966H41.14c-2.657,0-3.134-1.306-3.134-3.394l1.189-34.617l23.175,0.197v34.42
	C62.37,58.154,61.475,58.966,59.328,58.966z"/>
<polygon fill="#FEF4D3" points="62.37,28.588 62.37,21.765 39.194,21.568 38.952,28.588 "/>
<polygon opacity="0.07" fill="#E94B4C" points="39.347,56.731 64.476,10.124 65.775,11.471 40.735,57.508 "/>
<g>
	<g>
		<path fill="#3CA08E" d="M33.735,67.886c0.787,0,1.446,0.089,1.977,0.265c0.53,0.177,0.964,0.414,1.302,0.711
			c0.338,0.298,0.603,0.635,0.795,1.013c0.193,0.377,0.354,0.768,0.482,1.169l-3.037,1.399c-0.177-0.514-0.366-0.904-0.567-1.17
			c-0.201-0.265-0.518-0.398-0.952-0.398c-0.467,0-0.836,0.133-1.109,0.398c-0.273,0.265-0.41,0.583-0.41,0.953
			c0,0.466,0.105,0.82,0.314,1.06c0.209,0.241,0.482,0.482,0.82,0.723l2.121,1.567c0.627,0.467,1.121,1.021,1.483,1.664
			c0.361,0.643,0.542,1.415,0.542,2.315c0,0.852-0.173,1.595-0.519,2.23c-0.345,0.635-0.811,1.161-1.398,1.579
			c-0.587,0.419-1.258,0.732-2.013,0.94c-0.756,0.209-1.543,0.313-2.363,0.313c-1.173,0-2.194-0.132-3.062-0.397
			c-0.868-0.266-1.639-0.583-2.315-0.953l1.687-2.989c0.594,0.354,1.189,0.662,1.785,0.928c0.594,0.265,1.205,0.397,1.832,0.397
			c0.659,0,1.186-0.141,1.579-0.422c0.394-0.281,0.591-0.719,0.591-1.314c0-0.466-0.113-0.847-0.338-1.145
			c-0.225-0.297-0.523-0.582-0.892-0.856l-1.712-1.254c-0.386-0.289-0.723-0.578-1.012-0.868c-0.29-0.289-0.53-0.603-0.723-0.94
			c-0.193-0.337-0.341-0.707-0.446-1.108c-0.105-0.402-0.157-0.852-0.157-1.351c0-0.707,0.144-1.338,0.434-1.892
			c0.29-0.555,0.691-1.021,1.205-1.398c0.514-0.378,1.117-0.667,1.808-0.869C32.159,67.987,32.915,67.886,33.735,67.886z"/>
		<path fill="#3CA08E" d="M55.481,72.226c0.241,0.514,0.413,1.017,0.518,1.506c0.105,0.49,0.157,0.921,0.157,1.29
			c0,0.723-0.076,1.458-0.228,2.205c-0.154,0.748-0.374,1.471-0.663,2.17c-0.29,0.699-0.643,1.354-1.061,1.965
			c-0.418,0.611-0.892,1.141-1.422,1.591c-1.157,1.012-2.54,1.519-4.147,1.519c-0.515,0-0.969-0.073-1.362-0.217
			c-0.394-0.144-0.752-0.418-1.073-0.82c-0.466,0.322-0.96,0.574-1.483,0.759s-1.097,0.277-1.723,0.277
			c-1.061,0-1.909-0.245-2.544-0.736c-0.635-0.49-0.952-1.241-0.952-2.254c0-0.097,0.008-0.233,0.024-0.41
			c0.016-0.176,0.037-0.358,0.06-0.542c0.024-0.185,0.048-0.365,0.073-0.542c0.024-0.176,0.044-0.322,0.06-0.434l1.374-7.064h3.665
			l-1.374,7.16c-0.033,0.129-0.065,0.338-0.096,0.627c-0.033,0.289-0.049,0.498-0.049,0.626c0,0.257,0.057,0.467,0.169,0.627
			s0.281,0.241,0.506,0.241c0.386,0,0.736-0.225,1.049-0.675c0.313-0.45,0.587-1.017,0.82-1.7c0.233-0.683,0.413-1.431,0.542-2.242
			c0.128-0.812,0.193-1.571,0.193-2.279c0-0.241-0.021-0.542-0.06-0.904c-0.04-0.362-0.101-0.679-0.181-0.953l3.231-0.795
			c0.257,0.514,0.434,1.017,0.53,1.506c0.097,0.49,0.145,0.921,0.145,1.29c0,1.028-0.145,2.065-0.434,3.11
			c-0.29,1.045-0.708,2.001-1.254,2.869c0.032,0.225,0.112,0.41,0.241,0.555c0.128,0.145,0.313,0.217,0.555,0.217
			c0.386,0,0.767-0.225,1.145-0.675c0.377-0.45,0.719-1.017,1.024-1.7c0.306-0.683,0.555-1.431,0.748-2.242
			c0.193-0.812,0.289-1.571,0.289-2.279c0-0.241-0.02-0.542-0.06-0.904c-0.04-0.362-0.1-0.679-0.18-0.953L55.481,72.226z"/>
		<path fill="#3CA08E" d="M59.893,84.473c-0.852,0-1.511-0.213-1.977-0.639c-0.466-0.426-0.699-0.992-0.699-1.7
			c0-0.112,0.008-0.233,0.024-0.362c0.015-0.128,0.04-0.257,0.072-0.386l1.785-8.896h3.688l-1.567,7.98
			c-0.032,0.209-0.057,0.346-0.073,0.41c-0.016,0.064-0.024,0.137-0.024,0.217c0,0.112,0.015,0.213,0.048,0.301
			c0.032,0.089,0.121,0.133,0.265,0.133c0.08,0,0.181-0.012,0.302-0.037c0.12-0.024,0.232-0.052,0.337-0.084
			c0.105-0.032,0.201-0.064,0.29-0.096c0.088-0.032,0.141-0.049,0.157-0.049v2.604c-0.257,0.129-0.53,0.233-0.82,0.313
			c-0.241,0.081-0.518,0.148-0.832,0.205C60.556,84.445,60.23,84.473,59.893,84.473z M61.653,66.85c0.691,0,1.197,0.173,1.519,0.518
			c0.322,0.346,0.483,0.816,0.483,1.411c0,0.578-0.205,1.081-0.615,1.506c-0.41,0.426-0.961,0.639-1.652,0.639
			c-0.691,0-1.198-0.176-1.519-0.53c-0.322-0.353-0.483-0.811-0.483-1.374c0-0.578,0.201-1.085,0.603-1.519
			C60.391,67.067,60.945,66.85,61.653,66.85z"/>
		<path fill="#3CA08E" d="M69.849,83.823c-0.29,0.112-0.595,0.209-0.917,0.29c-0.273,0.08-0.587,0.148-0.94,0.205
			c-0.354,0.056-0.716,0.084-1.086,0.084c-0.9,0-1.571-0.209-2.013-0.626c-0.442-0.418-0.663-0.98-0.663-1.687
			c0-0.112,0.008-0.233,0.024-0.362c0.016-0.128,0.04-0.257,0.073-0.386l2.724-14.032l3.761-0.482L68.21,80.471
			c-0.033,0.209-0.057,0.346-0.073,0.41c-0.016,0.064-0.024,0.137-0.024,0.217c0,0.112,0.021,0.213,0.06,0.301
			c0.04,0.089,0.141,0.133,0.302,0.133c0.096,0,0.217-0.012,0.361-0.037c0.145-0.024,0.29-0.056,0.434-0.096
			c0.145-0.04,0.269-0.076,0.374-0.108c0.105-0.032,0.173-0.048,0.205-0.048V83.823z"/>
		<path fill="#3CA08E" d="M77.13,83.823c-0.29,0.112-0.595,0.209-0.917,0.29c-0.273,0.08-0.587,0.148-0.94,0.205
			c-0.354,0.056-0.716,0.084-1.086,0.084c-0.9,0-1.571-0.209-2.013-0.626c-0.442-0.418-0.663-0.98-0.663-1.687
			c0-0.112,0.008-0.233,0.024-0.362c0.016-0.128,0.04-0.257,0.073-0.386l2.724-14.032l3.761-0.482l-2.603,13.646
			c-0.033,0.209-0.057,0.346-0.073,0.41c-0.016,0.064-0.024,0.137-0.024,0.217c0,0.112,0.021,0.213,0.06,0.301
			c0.04,0.089,0.141,0.133,0.302,0.133c0.096,0,0.217-0.012,0.361-0.037c0.145-0.024,0.29-0.056,0.434-0.096
			c0.145-0.04,0.269-0.076,0.374-0.108c0.105-0.032,0.173-0.048,0.205-0.048V83.823z"/>
	</g>
	<g>
		<g>
			<path fill="#FFFFFF" d="M31.735,65.886c0.787,0,1.446,0.089,1.977,0.265c0.53,0.177,0.964,0.414,1.302,0.711
				c0.338,0.298,0.603,0.635,0.795,1.013c0.193,0.377,0.354,0.768,0.482,1.169l-3.037,1.399c-0.177-0.514-0.366-0.904-0.567-1.17
				c-0.201-0.265-0.518-0.398-0.952-0.398c-0.467,0-0.836,0.133-1.109,0.398c-0.273,0.265-0.41,0.583-0.41,0.953
				c0,0.466,0.105,0.82,0.314,1.06c0.209,0.241,0.482,0.482,0.82,0.723l2.121,1.567c0.627,0.467,1.121,1.021,1.483,1.664
				c0.361,0.643,0.542,1.415,0.542,2.315c0,0.852-0.173,1.595-0.519,2.23c-0.345,0.635-0.811,1.161-1.398,1.579
				c-0.587,0.419-1.258,0.732-2.013,0.94c-0.756,0.209-1.543,0.313-2.363,0.313c-1.173,0-2.194-0.132-3.062-0.397
				c-0.868-0.266-1.639-0.583-2.315-0.953l1.687-2.989c0.594,0.354,1.189,0.662,1.785,0.928c0.594,0.265,1.205,0.397,1.832,0.397
				c0.659,0,1.186-0.141,1.579-0.422c0.394-0.281,0.591-0.719,0.591-1.314c0-0.466-0.113-0.847-0.338-1.145
				c-0.225-0.297-0.523-0.582-0.892-0.856l-1.712-1.254c-0.386-0.289-0.723-0.578-1.012-0.868c-0.29-0.289-0.53-0.603-0.723-0.94
				c-0.193-0.337-0.341-0.707-0.446-1.108c-0.105-0.402-0.157-0.852-0.157-1.351c0-0.707,0.144-1.338,0.434-1.892
				c0.29-0.555,0.691-1.021,1.205-1.398c0.514-0.378,1.117-0.667,1.808-0.869C30.159,65.987,30.915,65.886,31.735,65.886z"/>
			<path fill="#FFFFFF" d="M53.481,70.226c0.241,0.514,0.413,1.017,0.518,1.506c0.105,0.49,0.157,0.921,0.157,1.29
				c0,0.723-0.076,1.458-0.228,2.205c-0.154,0.748-0.374,1.471-0.663,2.17c-0.29,0.699-0.643,1.354-1.061,1.965
				c-0.418,0.611-0.892,1.141-1.422,1.591c-1.157,1.012-2.54,1.519-4.147,1.519c-0.515,0-0.969-0.073-1.362-0.217
				c-0.394-0.144-0.752-0.418-1.073-0.82c-0.466,0.322-0.96,0.574-1.483,0.759s-1.097,0.277-1.723,0.277
				c-1.061,0-1.909-0.245-2.544-0.736c-0.635-0.49-0.952-1.241-0.952-2.254c0-0.097,0.008-0.233,0.024-0.41
				c0.016-0.176,0.037-0.358,0.06-0.542c0.024-0.185,0.048-0.365,0.073-0.542c0.024-0.176,0.044-0.322,0.06-0.434l1.374-7.064h3.665
				l-1.374,7.16c-0.033,0.129-0.065,0.338-0.096,0.627c-0.033,0.289-0.049,0.498-0.049,0.626c0,0.257,0.057,0.467,0.169,0.627
				s0.281,0.241,0.506,0.241c0.386,0,0.736-0.225,1.049-0.675c0.313-0.45,0.587-1.017,0.82-1.7c0.233-0.683,0.413-1.431,0.542-2.242
				c0.128-0.812,0.193-1.571,0.193-2.279c0-0.241-0.021-0.542-0.06-0.904c-0.04-0.362-0.101-0.679-0.181-0.953l3.231-0.795
				c0.257,0.514,0.434,1.017,0.53,1.506c0.097,0.49,0.145,0.921,0.145,1.29c0,1.028-0.145,2.065-0.434,3.11
				c-0.29,1.045-0.708,2.001-1.254,2.869c0.032,0.225,0.112,0.41,0.241,0.555c0.128,0.145,0.313,0.217,0.555,0.217
				c0.386,0,0.767-0.225,1.145-0.675c0.377-0.45,0.719-1.017,1.024-1.7c0.306-0.683,0.555-1.431,0.748-2.242
				c0.193-0.812,0.289-1.571,0.289-2.279c0-0.241-0.02-0.542-0.06-0.904c-0.04-0.362-0.1-0.679-0.18-0.953L53.481,70.226z"/>
			<path fill="#FFFFFF" d="M57.893,82.473c-0.852,0-1.511-0.213-1.977-0.639c-0.466-0.426-0.699-0.992-0.699-1.7
				c0-0.112,0.008-0.233,0.024-0.362c0.015-0.128,0.04-0.257,0.072-0.386l1.785-8.896h3.688l-1.567,7.98
				c-0.032,0.209-0.057,0.346-0.073,0.41c-0.016,0.064-0.024,0.137-0.024,0.217c0,0.112,0.015,0.213,0.048,0.301
				c0.032,0.089,0.121,0.133,0.265,0.133c0.08,0,0.181-0.012,0.302-0.037c0.12-0.024,0.232-0.052,0.337-0.084
				c0.105-0.032,0.201-0.064,0.29-0.096c0.088-0.032,0.141-0.049,0.157-0.049v2.604c-0.257,0.129-0.53,0.233-0.82,0.313
				c-0.241,0.081-0.518,0.148-0.832,0.205C58.556,82.445,58.23,82.473,57.893,82.473z M59.653,64.85
				c0.691,0,1.197,0.173,1.519,0.518c0.322,0.346,0.483,0.816,0.483,1.411c0,0.578-0.205,1.081-0.615,1.506
				c-0.41,0.426-0.961,0.639-1.652,0.639c-0.691,0-1.198-0.176-1.519-0.53c-0.322-0.353-0.483-0.811-0.483-1.374
				c0-0.578,0.201-1.085,0.603-1.519C58.391,65.067,58.945,64.85,59.653,64.85z"/>
			<path fill="#FFFFFF" d="M67.849,81.823c-0.29,0.112-0.595,0.209-0.917,0.29c-0.273,0.08-0.587,0.148-0.94,0.205
				c-0.354,0.056-0.716,0.084-1.086,0.084c-0.9,0-1.571-0.209-2.013-0.626c-0.442-0.418-0.663-0.98-0.663-1.687
				c0-0.112,0.008-0.233,0.024-0.362c0.016-0.128,0.04-0.257,0.073-0.386l2.724-14.032l3.761-0.482L66.21,78.471
				c-0.033,0.209-0.057,0.346-0.073,0.41c-0.016,0.064-0.024,0.137-0.024,0.217c0,0.112,0.021,0.213,0.06,0.301
				c0.04,0.089,0.141,0.133,0.302,0.133c0.096,0,0.217-0.012,0.361-0.037c0.145-0.024,0.29-0.056,0.434-0.096
				c0.145-0.04,0.269-0.076,0.374-0.108c0.105-0.032,0.173-0.048,0.205-0.048V81.823z"/>
			<path fill="#FFFFFF" d="M75.13,81.823c-0.29,0.112-0.595,0.209-0.917,0.29c-0.273,0.08-0.587,0.148-0.94,0.205
				c-0.354,0.056-0.716,0.084-1.086,0.084c-0.9,0-1.571-0.209-2.013-0.626c-0.442-0.418-0.663-0.98-0.663-1.687
				c0-0.112,0.008-0.233,0.024-0.362c0.016-0.128,0.04-0.257,0.073-0.386l2.724-14.032l3.761-0.482l-2.603,13.646
				c-0.033,0.209-0.057,0.346-0.073,0.41c-0.016,0.064-0.024,0.137-0.024,0.217c0,0.112,0.021,0.213,0.06,0.301
				c0.04,0.089,0.141,0.133,0.302,0.133c0.096,0,0.217-0.012,0.361-0.037c0.145-0.024,0.29-0.056,0.434-0.096
				c0.145-0.04,0.269-0.076,0.374-0.108c0.105-0.032,0.173-0.048,0.205-0.048V81.823z"/>
		</g>
	</g>
</g>
<g>
	<g>
		<path fill="#3C9F8D" d="M40.977,88.957c0,0.423-0.054,0.815-0.163,1.176c-0.109,0.361-0.27,0.678-0.485,0.948
			c-0.214,0.27-0.479,0.481-0.793,0.634c-0.314,0.153-0.674,0.229-1.079,0.229c-0.282,0-0.56-0.047-0.833-0.141
			c-0.273-0.093-0.554-0.214-0.842-0.361l1.119-5.79l1.393-0.176l-0.282,1.436c-0.041,0.2-0.099,0.407-0.172,0.621
			c-0.073,0.215-0.16,0.445-0.26,0.692c0.318-0.523,0.714-0.785,1.19-0.785c0.217,0,0.403,0.046,0.559,0.137
			c0.156,0.091,0.281,0.209,0.375,0.352c0.094,0.144,0.163,0.307,0.207,0.49C40.955,88.602,40.977,88.781,40.977,88.957z
			 M39.347,88.481c-0.088,0-0.18,0.062-0.277,0.186c-0.097,0.123-0.191,0.285-0.282,0.484c-0.092,0.2-0.176,0.422-0.256,0.665
			s-0.145,0.484-0.199,0.718l-0.088,0.361c0.076,0.024,0.164,0.035,0.264,0.035c0.205,0,0.376-0.075,0.511-0.225
			s0.243-0.33,0.322-0.542c0.079-0.212,0.135-0.432,0.168-0.661c0.032-0.229,0.048-0.42,0.048-0.573
			c0-0.124-0.015-0.229-0.044-0.318C39.485,88.525,39.429,88.481,39.347,88.481z"/>
		<path fill="#3C9F8D" d="M43.85,87.415c0.299,0,0.551,0.045,0.753,0.136c0.203,0.092,0.364,0.21,0.485,0.358
			c0.12,0.147,0.207,0.314,0.26,0.502c0.053,0.188,0.079,0.379,0.079,0.573c0,0.411-0.054,0.798-0.163,1.159
			c-0.108,0.361-0.268,0.678-0.48,0.952c-0.212,0.273-0.471,0.489-0.78,0.648c-0.309,0.158-0.662,0.238-1.062,0.238
			c-0.299,0-0.549-0.044-0.749-0.132c-0.199-0.088-0.361-0.205-0.484-0.352c-0.124-0.147-0.212-0.313-0.264-0.498
			c-0.053-0.185-0.079-0.374-0.079-0.568c0-0.406,0.054-0.79,0.163-1.154c0.108-0.364,0.269-0.684,0.481-0.961
			c0.212-0.276,0.471-0.495,0.78-0.656C43.097,87.495,43.451,87.415,43.85,87.415z M43.665,88.402c-0.141,0-0.267,0.069-0.379,0.207
			c-0.112,0.138-0.205,0.311-0.278,0.519c-0.073,0.209-0.129,0.435-0.167,0.679c-0.038,0.244-0.057,0.471-0.057,0.683
			c0,0.176,0.031,0.304,0.092,0.383c0.062,0.079,0.146,0.119,0.251,0.119c0.141,0,0.266-0.069,0.374-0.207
			c0.108-0.138,0.2-0.311,0.273-0.52c0.073-0.208,0.129-0.433,0.167-0.674C43.981,89.351,44,89.128,44,88.922
			c0-0.182-0.031-0.314-0.092-0.396C43.846,88.443,43.765,88.402,43.665,88.402z"/>
		<path fill="#3C9F8D" d="M46.838,91.927c-0.312,0-0.552-0.078-0.723-0.234c-0.17-0.155-0.256-0.362-0.256-0.621
			c0-0.041,0.003-0.085,0.009-0.132c0.006-0.047,0.015-0.094,0.027-0.141l0.652-3.251h1.348l-0.573,2.917
			c-0.011,0.076-0.021,0.126-0.026,0.15c-0.006,0.024-0.009,0.05-0.009,0.079c0,0.041,0.006,0.078,0.018,0.11
			c0.012,0.033,0.044,0.049,0.097,0.049c0.03,0,0.066-0.005,0.11-0.014c0.044-0.008,0.086-0.019,0.124-0.031
			s0.073-0.024,0.105-0.035c0.033-0.012,0.052-0.018,0.057-0.018v0.952c-0.094,0.047-0.193,0.085-0.299,0.115
			c-0.088,0.029-0.189,0.054-0.304,0.075C47.08,91.916,46.961,91.927,46.838,91.927z M47.481,85.485
			c0.253,0,0.438,0.063,0.555,0.189c0.118,0.127,0.176,0.299,0.176,0.516c0,0.212-0.075,0.395-0.225,0.551
			c-0.15,0.156-0.351,0.234-0.603,0.234c-0.253,0-0.438-0.065-0.555-0.194c-0.117-0.129-0.176-0.296-0.176-0.503
			c0-0.211,0.073-0.396,0.22-0.555C47.02,85.564,47.223,85.485,47.481,85.485z"/>
		<path fill="#3C9F8D" d="M50.477,91.689c-0.106,0.04-0.218,0.076-0.335,0.105c-0.1,0.03-0.215,0.054-0.344,0.075
			c-0.129,0.021-0.261,0.031-0.396,0.031c-0.329,0-0.574-0.076-0.736-0.229c-0.162-0.152-0.242-0.358-0.242-0.616
			c0-0.041,0.003-0.085,0.008-0.132c0.006-0.047,0.015-0.094,0.027-0.141l0.996-5.129l1.374-0.176l-0.952,4.988
			c-0.011,0.076-0.021,0.126-0.026,0.15c-0.006,0.024-0.009,0.05-0.009,0.079c0,0.041,0.008,0.078,0.022,0.11
			c0.015,0.033,0.051,0.049,0.11,0.049c0.035,0,0.079-0.005,0.132-0.014c0.053-0.008,0.106-0.021,0.159-0.035
			c0.053-0.015,0.099-0.028,0.137-0.04c0.038-0.011,0.063-0.018,0.075-0.018V91.689z"/>
		<path fill="#3C9F8D" d="M50.953,90.429c0-0.406,0.054-0.79,0.163-1.154c0.108-0.364,0.269-0.684,0.481-0.961
			c0.212-0.276,0.471-0.495,0.78-0.656c0.309-0.162,0.662-0.242,1.062-0.242c0.493,0,0.849,0.099,1.066,0.299
			c0.217,0.199,0.326,0.461,0.326,0.784c0,0.247-0.06,0.476-0.181,0.688c-0.121,0.212-0.291,0.396-0.511,0.555
			c-0.22,0.159-0.482,0.288-0.785,0.388c-0.303,0.1-0.633,0.167-0.991,0.202c0,0.024-0.002,0.054-0.005,0.092
			s-0.005,0.072-0.005,0.102c0,0.147,0.041,0.253,0.124,0.317c0.082,0.065,0.185,0.097,0.308,0.097c0.083,0,0.196-0.018,0.339-0.053
			c0.144-0.035,0.29-0.076,0.436-0.124c0.17-0.053,0.35-0.115,0.538-0.185l0.299,0.899c-0.199,0.1-0.405,0.185-0.616,0.255
			c-0.183,0.065-0.383,0.122-0.603,0.172c-0.221,0.05-0.436,0.075-0.648,0.075c-0.299,0-0.549-0.044-0.749-0.132
			c-0.199-0.088-0.361-0.205-0.484-0.352c-0.124-0.147-0.212-0.313-0.264-0.498C50.979,90.812,50.953,90.623,50.953,90.429z
			 M53.227,88.437c-0.153,0-0.294,0.086-0.423,0.26c-0.129,0.173-0.229,0.398-0.299,0.675c0.317-0.041,0.56-0.134,0.727-0.278
			c0.167-0.144,0.251-0.283,0.251-0.419C53.483,88.517,53.397,88.437,53.227,88.437z"/>
		<path fill="#3C9F8D" d="M58.135,88.913c-0.064-0.065-0.135-0.124-0.212-0.176c-0.076-0.053-0.173-0.079-0.29-0.079
			c-0.083,0-0.16,0.031-0.234,0.092c-0.073,0.062-0.141,0.143-0.202,0.243c-0.062,0.099-0.116,0.212-0.163,0.339
			c-0.047,0.126-0.085,0.254-0.115,0.383l-0.422,2.15H55.13l0.45-2.256c0.029-0.147,0.051-0.283,0.066-0.409
			c0.015-0.127,0.022-0.243,0.022-0.348c0-0.276-0.037-0.497-0.11-0.661s-0.128-0.277-0.163-0.335l1.11-0.432
			c0.083,0.094,0.144,0.204,0.185,0.331c0.041,0.126,0.062,0.26,0.062,0.401c0,0.064-0.005,0.144-0.013,0.238
			c-0.009,0.094-0.025,0.235-0.049,0.423c0.147-0.5,0.326-0.853,0.538-1.062s0.473-0.313,0.785-0.313
			c0.17,0,0.327,0.025,0.471,0.075c0.144,0.05,0.269,0.134,0.374,0.251L58.135,88.913z"/>
		<path fill="#3C9F8D" d="M59.174,89.609c0.03-0.147,0.052-0.283,0.066-0.409c0.015-0.127,0.022-0.243,0.022-0.348
			c0-0.276-0.037-0.497-0.11-0.661c-0.074-0.164-0.128-0.277-0.163-0.335l1.111-0.432c0.082,0.094,0.144,0.204,0.185,0.331
			c0.041,0.126,0.062,0.26,0.062,0.401c0,0.064-0.003,0.142-0.009,0.233c-0.006,0.092-0.024,0.225-0.053,0.401l0.115-0.247
			c0.188-0.411,0.401-0.697,0.639-0.859c0.238-0.161,0.495-0.242,0.772-0.242c0.217,0,0.403,0.046,0.559,0.137
			c0.156,0.091,0.28,0.209,0.374,0.352c0.094,0.144,0.163,0.307,0.208,0.49c0.044,0.182,0.066,0.361,0.066,0.537
			c0,0.423-0.054,0.815-0.163,1.176c-0.109,0.361-0.27,0.678-0.485,0.948c-0.215,0.27-0.479,0.481-0.793,0.634
			c-0.315,0.153-0.678,0.229-1.089,0.229c-0.076,0-0.148-0.003-0.215-0.008c-0.068-0.006-0.134-0.015-0.199-0.027l-0.335,1.736
			l-1.375,0.176L59.174,89.609z M60.276,90.896c0.076,0.024,0.168,0.035,0.273,0.035c0.199,0,0.367-0.075,0.503-0.225
			c0.134-0.15,0.242-0.33,0.322-0.542c0.079-0.212,0.134-0.432,0.167-0.661c0.032-0.229,0.048-0.42,0.048-0.573
			c0-0.124-0.013-0.229-0.04-0.318c-0.026-0.088-0.081-0.132-0.163-0.132c-0.088,0-0.181,0.062-0.277,0.186
			c-0.097,0.123-0.193,0.285-0.286,0.484c-0.095,0.2-0.183,0.428-0.264,0.683c-0.083,0.256-0.154,0.513-0.212,0.772L60.276,90.896z"
			/>
		<path fill="#3C9F8D" d="M65.458,91.689c-0.106,0.04-0.218,0.076-0.335,0.105c-0.1,0.03-0.215,0.054-0.344,0.075
			C64.65,91.89,64.518,91.9,64.383,91.9c-0.329,0-0.574-0.076-0.736-0.229c-0.162-0.152-0.242-0.358-0.242-0.616
			c0-0.041,0.003-0.085,0.008-0.132c0.006-0.047,0.015-0.094,0.027-0.141l0.996-5.129l1.374-0.176l-0.952,4.988
			c-0.011,0.076-0.021,0.126-0.026,0.15c-0.006,0.024-0.009,0.05-0.009,0.079c0,0.041,0.008,0.078,0.022,0.11
			c0.015,0.033,0.051,0.049,0.11,0.049c0.035,0,0.079-0.005,0.132-0.014c0.053-0.008,0.106-0.021,0.159-0.035
			c0.053-0.015,0.099-0.028,0.137-0.04c0.038-0.011,0.063-0.018,0.075-0.018V91.689z"/>
		<path fill="#3C9F8D" d="M67.141,91.944c-0.223,0-0.411-0.046-0.564-0.137c-0.153-0.091-0.277-0.209-0.371-0.352
			C66.113,91.311,66.044,91.15,66,90.97c-0.044-0.179-0.066-0.36-0.066-0.542c0-0.423,0.054-0.815,0.163-1.176
			c0.108-0.361,0.27-0.677,0.485-0.947c0.214-0.27,0.478-0.482,0.793-0.635c0.314-0.153,0.677-0.229,1.089-0.229
			c0.193,0,0.368,0.016,0.524,0.049c0.156,0.032,0.315,0.086,0.481,0.163l0.705,0.044l-0.37,1.921
			c-0.029,0.141-0.051,0.274-0.066,0.4c-0.015,0.127-0.022,0.243-0.022,0.348c0,0.247,0.029,0.457,0.088,0.63
			s0.147,0.351,0.264,0.533l-1.11,0.441c-0.089-0.1-0.163-0.222-0.225-0.366c-0.061-0.144-0.092-0.304-0.092-0.48
			c0-0.07,0.002-0.15,0.005-0.238c0.003-0.089,0.01-0.191,0.022-0.309l-0.115,0.247c-0.188,0.406-0.401,0.694-0.639,0.864
			C67.675,91.86,67.418,91.944,67.141,91.944z M67.565,90.905c0.088,0,0.182-0.065,0.282-0.194c0.1-0.129,0.196-0.293,0.286-0.493
			c0.091-0.199,0.175-0.419,0.251-0.656c0.076-0.238,0.141-0.463,0.194-0.675l0.088-0.396c-0.065-0.024-0.153-0.035-0.264-0.035
			c-0.205,0-0.374,0.075-0.506,0.225s-0.238,0.331-0.318,0.542c-0.079,0.212-0.135,0.432-0.167,0.662
			c-0.032,0.229-0.048,0.42-0.048,0.572c0,0.124,0.013,0.229,0.04,0.318C67.428,90.86,67.482,90.905,67.565,90.905z"/>
		<path fill="#3C9F8D" d="M70.702,87.547h0.863l0.361-1.014l1.225-0.273l-0.256,1.287h0.899l-0.159,1.022h-0.934l-0.37,1.868
			c-0.012,0.03-0.019,0.074-0.022,0.132c-0.003,0.059-0.005,0.103-0.005,0.132c0,0.059,0.018,0.103,0.053,0.133
			c0.035,0.029,0.103,0.044,0.203,0.044c0.053,0,0.118-0.007,0.198-0.022c0.079-0.015,0.157-0.031,0.234-0.048
			c0.088-0.024,0.176-0.05,0.264-0.079v0.996c-0.105,0.041-0.226,0.076-0.361,0.105c-0.118,0.03-0.253,0.053-0.406,0.07
			s-0.317,0.027-0.493,0.027c-0.405,0-0.693-0.072-0.863-0.216c-0.17-0.144-0.256-0.354-0.256-0.629
			c0-0.047,0.003-0.102,0.009-0.163c0.005-0.062,0.015-0.119,0.026-0.172l0.441-2.176h-0.652V87.547z"/>
		<path fill="#3C9F8D" d="M73.574,90.429c0-0.406,0.054-0.79,0.163-1.154c0.108-0.364,0.269-0.684,0.481-0.961
			c0.212-0.276,0.471-0.495,0.78-0.656c0.309-0.162,0.662-0.242,1.062-0.242c0.493,0,0.849,0.099,1.066,0.299
			c0.217,0.199,0.326,0.461,0.326,0.784c0,0.247-0.06,0.476-0.181,0.688c-0.121,0.212-0.291,0.396-0.511,0.555
			c-0.22,0.159-0.482,0.288-0.785,0.388c-0.303,0.1-0.633,0.167-0.991,0.202c0,0.024-0.002,0.054-0.005,0.092
			c-0.003,0.038-0.005,0.072-0.005,0.102c0,0.147,0.041,0.253,0.124,0.317c0.082,0.065,0.185,0.097,0.308,0.097
			c0.082,0,0.196-0.018,0.339-0.053c0.144-0.035,0.29-0.076,0.436-0.124c0.17-0.053,0.35-0.115,0.538-0.185l0.299,0.899
			c-0.199,0.1-0.405,0.185-0.616,0.255c-0.183,0.065-0.383,0.122-0.604,0.172c-0.221,0.05-0.436,0.075-0.648,0.075
			c-0.299,0-0.549-0.044-0.749-0.132c-0.199-0.088-0.361-0.205-0.484-0.352c-0.124-0.147-0.212-0.313-0.264-0.498
			C73.6,90.812,73.574,90.623,73.574,90.429z M75.848,88.437c-0.153,0-0.294,0.086-0.423,0.26c-0.129,0.173-0.229,0.398-0.299,0.675
			c0.317-0.041,0.56-0.134,0.727-0.278c0.167-0.144,0.251-0.283,0.251-0.419C76.104,88.517,76.018,88.437,75.848,88.437z"/>
	</g>
	<g>
		<g>
			<path fill="#F7CF67" d="M39.977,87.957c0,0.423-0.054,0.815-0.163,1.176c-0.109,0.361-0.27,0.678-0.485,0.948
				c-0.214,0.27-0.479,0.481-0.793,0.634c-0.314,0.153-0.674,0.229-1.079,0.229c-0.282,0-0.56-0.047-0.833-0.141
				c-0.273-0.093-0.554-0.214-0.842-0.361l1.119-5.79l1.393-0.176l-0.282,1.436c-0.041,0.2-0.099,0.407-0.172,0.621
				c-0.073,0.215-0.16,0.445-0.26,0.692c0.318-0.523,0.714-0.785,1.19-0.785c0.217,0,0.403,0.046,0.559,0.137
				c0.156,0.091,0.281,0.209,0.375,0.352c0.094,0.144,0.163,0.307,0.207,0.49C39.955,87.602,39.977,87.781,39.977,87.957z
				 M38.347,87.481c-0.088,0-0.18,0.062-0.277,0.186c-0.097,0.123-0.191,0.285-0.282,0.484c-0.092,0.2-0.176,0.422-0.256,0.665
				s-0.145,0.484-0.199,0.718l-0.088,0.361c0.076,0.024,0.164,0.035,0.264,0.035c0.205,0,0.376-0.075,0.511-0.225
				s0.243-0.33,0.322-0.542c0.079-0.212,0.135-0.432,0.168-0.661c0.032-0.229,0.048-0.42,0.048-0.573
				c0-0.124-0.015-0.229-0.044-0.318C38.485,87.525,38.429,87.481,38.347,87.481z"/>
			<path fill="#F7CF67" d="M42.85,86.415c0.299,0,0.551,0.045,0.753,0.136c0.203,0.092,0.364,0.21,0.485,0.358
				c0.12,0.147,0.207,0.314,0.26,0.502c0.053,0.188,0.079,0.379,0.079,0.573c0,0.411-0.054,0.798-0.163,1.159
				c-0.108,0.361-0.268,0.678-0.48,0.952c-0.212,0.273-0.471,0.489-0.78,0.648c-0.309,0.158-0.662,0.238-1.062,0.238
				c-0.299,0-0.549-0.044-0.749-0.132c-0.199-0.088-0.361-0.205-0.484-0.352c-0.124-0.147-0.212-0.313-0.264-0.498
				c-0.053-0.185-0.079-0.374-0.079-0.568c0-0.406,0.054-0.79,0.163-1.154c0.108-0.364,0.269-0.684,0.481-0.961
				c0.212-0.276,0.471-0.495,0.78-0.656C42.097,86.495,42.451,86.415,42.85,86.415z M42.665,87.402
				c-0.141,0-0.267,0.069-0.379,0.207c-0.112,0.138-0.205,0.311-0.278,0.519c-0.073,0.209-0.129,0.435-0.167,0.679
				c-0.038,0.244-0.057,0.471-0.057,0.683c0,0.176,0.031,0.304,0.092,0.383c0.062,0.079,0.146,0.119,0.251,0.119
				c0.141,0,0.266-0.069,0.374-0.207c0.108-0.138,0.2-0.311,0.273-0.52c0.073-0.208,0.129-0.433,0.167-0.674
				C42.981,88.351,43,88.128,43,87.922c0-0.182-0.031-0.314-0.092-0.396C42.846,87.443,42.765,87.402,42.665,87.402z"/>
			<path fill="#F7CF67" d="M45.838,90.927c-0.312,0-0.552-0.078-0.723-0.234c-0.17-0.155-0.256-0.362-0.256-0.621
				c0-0.041,0.003-0.085,0.009-0.132c0.006-0.047,0.015-0.094,0.027-0.141l0.652-3.251h1.348l-0.573,2.917
				c-0.011,0.076-0.021,0.126-0.026,0.15c-0.006,0.024-0.009,0.05-0.009,0.079c0,0.041,0.006,0.078,0.018,0.11
				c0.012,0.033,0.044,0.049,0.097,0.049c0.03,0,0.066-0.005,0.11-0.014c0.044-0.008,0.086-0.019,0.124-0.031
				s0.073-0.024,0.105-0.035c0.033-0.012,0.052-0.018,0.057-0.018v0.952c-0.094,0.047-0.193,0.085-0.299,0.115
				c-0.088,0.029-0.189,0.054-0.304,0.075C46.08,90.916,45.961,90.927,45.838,90.927z M46.481,84.485
				c0.253,0,0.438,0.063,0.555,0.189c0.118,0.127,0.176,0.299,0.176,0.516c0,0.212-0.075,0.395-0.225,0.551
				c-0.15,0.156-0.351,0.234-0.603,0.234c-0.253,0-0.438-0.065-0.555-0.194c-0.117-0.129-0.176-0.296-0.176-0.503
				c0-0.211,0.073-0.396,0.22-0.555C46.02,84.564,46.223,84.485,46.481,84.485z"/>
			<path fill="#F7CF67" d="M49.477,90.689c-0.106,0.04-0.218,0.076-0.335,0.105c-0.1,0.03-0.215,0.054-0.344,0.075
				c-0.129,0.021-0.261,0.031-0.396,0.031c-0.329,0-0.574-0.076-0.736-0.229c-0.162-0.152-0.242-0.358-0.242-0.616
				c0-0.041,0.003-0.085,0.008-0.132c0.006-0.047,0.015-0.094,0.027-0.141l0.996-5.129l1.374-0.176l-0.952,4.988
				c-0.011,0.076-0.021,0.126-0.026,0.15c-0.006,0.024-0.009,0.05-0.009,0.079c0,0.041,0.008,0.078,0.022,0.11
				c0.015,0.033,0.051,0.049,0.11,0.049c0.035,0,0.079-0.005,0.132-0.014c0.053-0.008,0.106-0.021,0.159-0.035
				c0.053-0.015,0.099-0.028,0.137-0.04c0.038-0.011,0.063-0.018,0.075-0.018V90.689z"/>
			<path fill="#F7CF67" d="M49.953,89.429c0-0.406,0.054-0.79,0.163-1.154c0.108-0.364,0.269-0.684,0.481-0.961
				c0.212-0.276,0.471-0.495,0.78-0.656c0.309-0.162,0.662-0.242,1.062-0.242c0.493,0,0.849,0.099,1.066,0.299
				c0.217,0.199,0.326,0.461,0.326,0.784c0,0.247-0.06,0.476-0.181,0.688c-0.121,0.212-0.291,0.396-0.511,0.555
				c-0.22,0.159-0.482,0.288-0.785,0.388c-0.303,0.1-0.633,0.167-0.991,0.202c0,0.024-0.002,0.054-0.005,0.092
				s-0.005,0.072-0.005,0.102c0,0.147,0.041,0.253,0.124,0.317c0.082,0.065,0.185,0.097,0.308,0.097
				c0.083,0,0.196-0.018,0.339-0.053c0.144-0.035,0.29-0.076,0.436-0.124c0.17-0.053,0.35-0.115,0.538-0.185l0.299,0.899
				c-0.199,0.1-0.405,0.185-0.616,0.255c-0.183,0.065-0.383,0.122-0.603,0.172c-0.221,0.05-0.436,0.075-0.648,0.075
				c-0.299,0-0.549-0.044-0.749-0.132c-0.199-0.088-0.361-0.205-0.484-0.352c-0.124-0.147-0.212-0.313-0.264-0.498
				C49.979,89.812,49.953,89.623,49.953,89.429z M52.227,87.437c-0.153,0-0.294,0.086-0.423,0.26
				c-0.129,0.173-0.229,0.398-0.299,0.675c0.317-0.041,0.56-0.134,0.727-0.278c0.167-0.144,0.251-0.283,0.251-0.419
				C52.483,87.517,52.397,87.437,52.227,87.437z"/>
			<path fill="#F7CF67" d="M57.135,87.913c-0.064-0.065-0.135-0.124-0.212-0.176c-0.076-0.053-0.173-0.079-0.29-0.079
				c-0.083,0-0.16,0.031-0.234,0.092c-0.073,0.062-0.141,0.143-0.202,0.243c-0.062,0.099-0.116,0.212-0.163,0.339
				c-0.047,0.126-0.085,0.254-0.115,0.383l-0.422,2.15H54.13l0.45-2.256c0.029-0.147,0.051-0.283,0.066-0.409
				c0.015-0.127,0.022-0.243,0.022-0.348c0-0.276-0.037-0.497-0.11-0.661s-0.128-0.277-0.163-0.335l1.11-0.432
				c0.083,0.094,0.144,0.204,0.185,0.331c0.041,0.126,0.062,0.26,0.062,0.401c0,0.064-0.005,0.144-0.013,0.238
				c-0.009,0.094-0.025,0.235-0.049,0.423c0.147-0.5,0.326-0.853,0.538-1.062s0.473-0.313,0.785-0.313
				c0.17,0,0.327,0.025,0.471,0.075c0.144,0.05,0.269,0.134,0.374,0.251L57.135,87.913z"/>
			<path fill="#F7CF67" d="M58.174,88.609c0.03-0.147,0.052-0.283,0.066-0.409c0.015-0.127,0.022-0.243,0.022-0.348
				c0-0.276-0.037-0.497-0.11-0.661c-0.074-0.164-0.128-0.277-0.163-0.335l1.111-0.432c0.082,0.094,0.144,0.204,0.185,0.331
				c0.041,0.126,0.062,0.26,0.062,0.401c0,0.064-0.003,0.142-0.009,0.233c-0.006,0.092-0.024,0.225-0.053,0.401l0.115-0.247
				c0.188-0.411,0.401-0.697,0.639-0.859c0.238-0.161,0.495-0.242,0.772-0.242c0.217,0,0.403,0.046,0.559,0.137
				c0.156,0.091,0.28,0.209,0.374,0.352c0.094,0.144,0.163,0.307,0.208,0.49c0.044,0.182,0.066,0.361,0.066,0.537
				c0,0.423-0.054,0.815-0.163,1.176c-0.109,0.361-0.27,0.678-0.485,0.948c-0.215,0.27-0.479,0.481-0.793,0.634
				c-0.315,0.153-0.678,0.229-1.089,0.229c-0.076,0-0.148-0.003-0.215-0.008c-0.068-0.006-0.134-0.015-0.199-0.027l-0.335,1.736
				l-1.375,0.176L58.174,88.609z M59.276,89.896c0.076,0.024,0.168,0.035,0.273,0.035c0.199,0,0.367-0.075,0.503-0.225
				c0.134-0.15,0.242-0.33,0.322-0.542c0.079-0.212,0.134-0.432,0.167-0.661c0.032-0.229,0.048-0.42,0.048-0.573
				c0-0.124-0.013-0.229-0.04-0.318c-0.026-0.088-0.081-0.132-0.163-0.132c-0.088,0-0.181,0.062-0.277,0.186
				c-0.097,0.123-0.193,0.285-0.286,0.484c-0.095,0.2-0.183,0.428-0.264,0.683c-0.083,0.256-0.154,0.513-0.212,0.772L59.276,89.896z
				"/>
			<path fill="#F7CF67" d="M64.458,90.689c-0.106,0.04-0.218,0.076-0.335,0.105c-0.1,0.03-0.215,0.054-0.344,0.075
				C63.65,90.89,63.518,90.9,63.383,90.9c-0.329,0-0.574-0.076-0.736-0.229c-0.162-0.152-0.242-0.358-0.242-0.616
				c0-0.041,0.003-0.085,0.008-0.132c0.006-0.047,0.015-0.094,0.027-0.141l0.996-5.129l1.374-0.176l-0.952,4.988
				c-0.011,0.076-0.021,0.126-0.026,0.15c-0.006,0.024-0.009,0.05-0.009,0.079c0,0.041,0.008,0.078,0.022,0.11
				c0.015,0.033,0.051,0.049,0.11,0.049c0.035,0,0.079-0.005,0.132-0.014c0.053-0.008,0.106-0.021,0.159-0.035
				c0.053-0.015,0.099-0.028,0.137-0.04c0.038-0.011,0.063-0.018,0.075-0.018V90.689z"/>
			<path fill="#F7CF67" d="M66.141,90.944c-0.223,0-0.411-0.046-0.564-0.137c-0.153-0.091-0.277-0.209-0.371-0.352
				C65.113,90.311,65.044,90.15,65,89.97c-0.044-0.179-0.066-0.36-0.066-0.542c0-0.423,0.054-0.815,0.163-1.176
				c0.108-0.361,0.27-0.677,0.485-0.947c0.214-0.27,0.478-0.482,0.793-0.635c0.314-0.153,0.677-0.229,1.089-0.229
				c0.193,0,0.368,0.016,0.524,0.049c0.156,0.032,0.315,0.086,0.481,0.163l0.705,0.044l-0.37,1.921
				c-0.029,0.141-0.051,0.274-0.066,0.4c-0.015,0.127-0.022,0.243-0.022,0.348c0,0.247,0.029,0.457,0.088,0.63
				s0.147,0.351,0.264,0.533l-1.11,0.441c-0.089-0.1-0.163-0.222-0.225-0.366c-0.061-0.144-0.092-0.304-0.092-0.48
				c0-0.07,0.002-0.15,0.005-0.238c0.003-0.089,0.01-0.191,0.022-0.309l-0.115,0.247c-0.188,0.406-0.401,0.694-0.639,0.864
				C66.675,90.86,66.418,90.944,66.141,90.944z M66.565,89.905c0.088,0,0.182-0.065,0.282-0.194c0.1-0.129,0.196-0.293,0.286-0.493
				c0.091-0.199,0.175-0.419,0.251-0.656c0.076-0.238,0.141-0.463,0.194-0.675l0.088-0.396c-0.065-0.024-0.153-0.035-0.264-0.035
				c-0.205,0-0.374,0.075-0.506,0.225s-0.238,0.331-0.318,0.542c-0.079,0.212-0.135,0.432-0.167,0.662
				c-0.032,0.229-0.048,0.42-0.048,0.572c0,0.124,0.013,0.229,0.04,0.318C66.428,89.86,66.482,89.905,66.565,89.905z"/>
			<path fill="#F7CF67" d="M69.702,86.547h0.863l0.361-1.014l1.225-0.273l-0.256,1.287h0.899l-0.159,1.022h-0.934l-0.37,1.868
				c-0.012,0.03-0.019,0.074-0.022,0.132c-0.003,0.059-0.005,0.103-0.005,0.132c0,0.059,0.018,0.103,0.053,0.133
				c0.035,0.029,0.103,0.044,0.203,0.044c0.053,0,0.118-0.007,0.198-0.022c0.079-0.015,0.157-0.031,0.234-0.048
				c0.088-0.024,0.176-0.05,0.264-0.079v0.996c-0.105,0.041-0.226,0.076-0.361,0.105c-0.118,0.03-0.253,0.053-0.406,0.07
				s-0.317,0.027-0.493,0.027c-0.405,0-0.693-0.072-0.863-0.216c-0.17-0.144-0.256-0.354-0.256-0.629
				c0-0.047,0.003-0.102,0.009-0.163c0.005-0.062,0.015-0.119,0.026-0.172l0.441-2.176h-0.652V86.547z"/>
			<path fill="#F7CF67" d="M72.574,89.429c0-0.406,0.054-0.79,0.163-1.154c0.108-0.364,0.269-0.684,0.481-0.961
				c0.212-0.276,0.471-0.495,0.78-0.656c0.309-0.162,0.662-0.242,1.062-0.242c0.493,0,0.849,0.099,1.066,0.299
				c0.217,0.199,0.326,0.461,0.326,0.784c0,0.247-0.06,0.476-0.181,0.688c-0.121,0.212-0.291,0.396-0.511,0.555
				c-0.22,0.159-0.482,0.288-0.785,0.388c-0.303,0.1-0.633,0.167-0.991,0.202c0,0.024-0.002,0.054-0.005,0.092
				c-0.003,0.038-0.005,0.072-0.005,0.102c0,0.147,0.041,0.253,0.124,0.317c0.082,0.065,0.185,0.097,0.308,0.097
				c0.082,0,0.196-0.018,0.339-0.053c0.144-0.035,0.29-0.076,0.436-0.124c0.17-0.053,0.35-0.115,0.538-0.185l0.299,0.899
				c-0.199,0.1-0.405,0.185-0.616,0.255c-0.183,0.065-0.383,0.122-0.604,0.172c-0.221,0.05-0.436,0.075-0.648,0.075
				c-0.299,0-0.549-0.044-0.749-0.132c-0.199-0.088-0.361-0.205-0.484-0.352c-0.124-0.147-0.212-0.313-0.264-0.498
				C72.6,89.812,72.574,89.623,72.574,89.429z M74.848,87.437c-0.153,0-0.294,0.086-0.423,0.26
				c-0.129,0.173-0.229,0.398-0.299,0.675c0.317-0.041,0.56-0.134,0.727-0.278c0.167-0.144,0.251-0.283,0.251-0.419
				C75.104,87.517,75.018,87.437,74.848,87.437z"/>
		</g>
	</g>
</g>
<path fill="#FFFFFF" d="M63.605,21.79c1.772,0,2.469-1.156,2.469-2.329c0-1.733-1.194-3.369-4.429-2.977
	c-1.666-2.244-5.186-3.444-8.886-1.571c-2.313-1.816-5.027-2.036-7.624-0.092c-2.829-1.066-5.506-0.574-7.01,1.999
	c-1.597-0.114-2.544,1.186-2.544,2.8c0,0.968,0.867,2.169,2.263,2.169C42.129,21.79,61.452,21.79,63.605,21.79z"/>
</svg>
