<svg xmlns="http://www.w3.org/2000/svg" viewBox="-4 81 190 40">
  <style>
    .st0{fill:#f7931a}.st1{fill:#fff}.st2{fill:#4d4d4d}
  </style>
  <path class="st0" d="M35.823 105.709c-2.6 10.5-13.2 16.9-23.7 14.2-10.5-2.6-16.8-13.2-14.2-23.7s13.2-16.9 23.7-14.2c10.5 2.6 16.8 13.2 14.2 23.7z"/>
  <path class="st1" d="M25.523 98.109c.4-2.6-1.6-4-4.3-4.9l.9-3.5-2.1-.5-.9 3.4c-.6-.1-1.1-.3-1.7-.4l.9-3.5-2.1-.5-.9 3.5c-.5-.1-.9-.2-1.4-.3l-3-.7-.6 2.2 1.6.4c.9.2 1 .8 1 1.2l-1 4c.1 0 .1 0 .2.1-.1 0-.1 0-.2-.1l-1.4 5.6c-.1.3-.4.7-1 .5l-1.6-.4-1.1 2.5 2.8.7c.5.1 1 .3 1.5.4l-.9 3.6 2.1.5.9-3.5c.6.2 1.2.3 1.7.4l-.9 3.5 2.1.5.9-3.6c3.7.7 6.4.4 7.6-2.9.9-2.7 0-4.2-2-5.2 1.5-.1 2.6-1.1 2.9-3zm-4.9 6.9c-.7 2.7-5.2 1.2-6.6.9l1.2-4.7c1.4.3 6.1 1 5.4 3.8zm.6-6.9c-.6 2.4-4.3 1.2-5.6.9l1.1-4.3c1.3.3 5.2.9 4.5 3.4z"/>
  <path class="st2" d="M54.623 93.209c1.6 0 3 .3 4.1.8 1.2.6 2.1 1.3 2.9 2.3.8 1 1.3 2.1 1.7 3.4s.5 2.7.5 4.2c0 2.3-.4 4.4-1.3 6.5-.8 2-2 3.8-3.4 5.3-1.5 1.5-3.2 2.7-5.1 3.6-2 .9-4.1 1.3-6.4 1.3h-1.6c-.7 0-1.6-.1-2.5-.2-1-.1-2-.3-3-.6-1.1-.3-2.1-.6-3-1.1l8.6-36 7.7-1.2-3.1 12.8c.7-.3 1.3-.5 2-.7.4-.3 1.2-.4 1.9-.4zm-6.4 21.2c1.2 0 2.2-.3 3.3-.8 1-.6 1.9-1.3 2.7-2.3.7-.9 1.3-2 1.8-3.2.4-1.2.6-2.4.6-3.7 0-1.6-.3-2.8-.8-3.7-.5-.9-1.5-1.3-2.9-1.3-.5 0-1.1.1-1.8.2-.7.2-1.4.5-2 1l-3.3 13.6c.2 0 .4.1.5.1s.3.1.5.1h1.4z"/>
  <path class="st2" d="M71.823 119.809h-7.3l6.2-26h7.4l-6.3 26zm3.5-29.2c-1 0-2-.3-2.8-.9s-1.2-1.5-1.2-2.8c0-.7.1-1.3.4-2 .3-.6.7-1.1 1.1-1.6.5-.4 1-.8 1.6-1.1.6-.3 1.3-.4 2-.4 1 0 1.9.3 2.8.9.8.6 1.2 1.5 1.2 2.8 0 .7-.1 1.3-.4 2-.3.6-.6 1.1-1.1 1.6-.5.4-1 .8-1.6 1.1-.6.3-1.3.4-2 .4z"/>
  <path class="st2" d="M84.423 87.309l7.7-1.2-1.9 7.7h8.2l-1.5 6h-8.2l-2.2 9.1c-.2.8-.3 1.5-.3 2.1 0 .7 0 1.2.2 1.7s.6.8 1.1 1.1c.5.3 1.2.4 2.2.4.8 0 1.6-.1 2.3-.2.7-.1 1.5-.4 2.2-.6l.5 5.6c-1 .4-2.1.7-3.2.9-1.2.3-2.5.4-4.1.4-2.3 0-4-.3-5.3-1s-2.1-1.6-2.7-2.8c-.5-1.2-.8-2.5-.7-4 .1-1.5.3-3.1.7-4.8l5-20.4z"/>
  <path class="st2" d="M98.123 109.409c0-2.2.4-4.4 1.1-6.3.7-2 1.8-3.7 3.1-5.2s3-2.7 4.9-3.5c1.9-.9 4.1-1.3 6.5-1.3 1.5 0 2.8.1 4 .4s2.2.7 3.2 1.1l-2.5 5.7c-.7-.3-1.3-.5-2.1-.7-.7-.2-1.6-.3-2.6-.3-2.4 0-4.4.8-5.8 2.5s-2.2 3.9-2.2 6.8c0 1.7.4 3 1.1 4.1.7 1 2.1 1.6 4 1.6 1 0 1.9-.1 2.8-.3.9-.2 1.7-.4 2.4-.7l.5 5.9c-.9.4-1.9.7-3.1 1-1.1.3-2.5.4-4 .4-2 0-3.8-.3-5.2-.9-1.4-.6-2.6-1.4-3.5-2.4s-1.6-2.2-2-3.5c-.4-1.5-.6-2.9-.6-4.4z"/>
  <path class="st2" d="M153.323 119.809h-7.3l6.2-26h7.4l-6.3 26zm3.6-29.2c-1 0-1.9-.3-2.8-.9-.8-.6-1.2-1.5-1.2-2.8 0-.7.1-1.3.4-2 .3-.6.7-1.1 1.1-1.6.5-.4 1-.8 1.6-1.1.6-.3 1.3-.4 2-.4 1 0 2 .3 2.8.9s1.2 1.5 1.2 2.8c0 .7-.1 1.3-.4 2-.3.6-.6 1.1-1.1 1.6-.5.4-1 .8-1.6 1.1-.7.3-1.3.4-2 .4z"/>
  <path class="st2" d="M164.823 94.909c.6-.2 1.2-.4 1.9-.6s1.4-.4 2.3-.6c.8-.2 1.8-.3 2.8-.4s2.2-.2 3.5-.2c3.9 0 6.5 1.1 8 3.4 1.5 2.2 1.7 5.3.8 9.2l-3.4 14.1h-7.4l3.3-13.8c.2-.9.4-1.7.5-2.5s.1-1.5 0-2.1-.4-1.1-.9-1.5-1.2-.6-2.2-.6-1.9.1-2.9.3l-4.8 20.1h-7.4c-.1.1 5.9-24.8 5.9-24.8z"/>
  <path class="st2" d="M130.723 120.509c-1.7 0-3.3-.3-4.6-.8-1.3-.5-2.3-1.3-3.2-2.2-.8-1-1.5-2.1-1.9-3.4s-.6-2.7-.6-4.3c0-2 .3-4 1-5.9.6-2 1.6-3.8 2.8-5.3 1.2-1.6 2.8-2.9 4.6-3.9 1.8-1 3.9-1.5 6.2-1.5 1.7 0 3.2.3 4.5.8s2.4 1.3 3.2 2.2c.8 1 1.5 2.1 1.9 3.4s.6 2.7.6 4.3c0 2-.3 4-.9 5.9-.6 2-1.6 3.8-2.8 5.3-1.2 1.6-2.7 2.9-4.6 3.9-1.7 1-3.8 1.5-6.2 1.5zm3.6-21.2c-1.1 0-2 .3-2.9.9-.8.6-1.5 1.4-2.1 2.4s-1 2-1.3 3.1-.4 2.2-.4 3.2c0 1.7.3 2.9.8 3.9.5.9 1.5 1.4 2.9 1.4 1.1 0 2-.3 2.9-.9.8-.6 1.5-1.4 2.1-2.4s1-2 1.3-3.1.4-2.2.4-3.2c0-1.6-.3-2.9-.8-3.9-.5-.9-1.5-1.4-2.9-1.4z"/>
</svg>
